<svg xmlns="http://www.w3.org/2000/svg" version="1.1" xmlns:xlink="http://www.w3.org/1999/xlink" xmlns:svgjs="http://svgjs.dev/svgjs" width="1920" height="1080" preserveAspectRatio="none" viewBox="0 0 1920 1080"><g mask="url(&quot;#SvgjsMask1054&quot;)" fill="none"><rect width="1920" height="1080" x="0" y="0" fill="rgba(255, 255, 255, 1)"></rect><path d="M126 1080L1206 0L2029.5 0L949.5 1080z" fill="url(&quot;#SvgjsLinearGradient1055&quot;)"></path><path d="M751.6 1080L1831.6 0L2049.1 0L969.1 1080z" fill="url(&quot;#SvgjsLinearGradient1055&quot;)"></path><path d="M1902 1080L822 0L318 0L1398 1080z" fill="url(&quot;#SvgjsLinearGradient1056&quot;)"></path><path d="M1223.4 1080L143.4000000000001 0L-170.0999999999999 0L909.9000000000001 1080z" fill="url(&quot;#SvgjsLinearGradient1056&quot;)"></path><path d="M1001.7156031162554 1080L1920 161.71560311625535L1920 1080z" fill="url(&quot;#SvgjsLinearGradient1055&quot;)"></path><path d="M0 1080L918.2843968837446 1080L 0 161.71560311625535z" fill="url(&quot;#SvgjsLinearGradient1056&quot;)"></path></g><defs><mask id="SvgjsMask1054"><rect width="1920" height="1080" fill="#ffffff"></rect></mask><linearGradient x1="0%" y1="100%" x2="100%" y2="0%" id="SvgjsLinearGradient1055"><stop stop-color="rgba(245, 255, 12, 0.41)" offset="0"></stop><stop stop-opacity="0" stop-color="rgba(245, 255, 12, 0.41)" offset="0.66"></stop></linearGradient><linearGradient x1="100%" y1="100%" x2="0%" y2="0%" id="SvgjsLinearGradient1056"><stop stop-color="rgba(245, 255, 12, 0.41)" offset="0"></stop><stop stop-opacity="0" stop-color="rgba(245, 255, 12, 0.41)" offset="0.66"></stop></linearGradient></defs></svg>