<svg xmlns="http://www.w3.org/2000/svg" version="1.1" xmlns:xlink="http://www.w3.org/1999/xlink" xmlns:svgjs="http://svgjs.dev/svgjs" width="1920" height="1080" preserveAspectRatio="none" viewBox="0 0 1920 1080"><g mask="url(&quot;#SvgjsMask2641&quot;)" fill="none"><rect width="1920" height="1080" x="0" y="0" fill="url(&quot;#SvgjsRadialGradient2642&quot;)"></rect><path d="M70.68844566948894-2.446093861417687L-23.79402242257884 209.22188026609007 178.06274143092284 191.56170177287913z" fill="rgba(12, 23, 47, 0.72)" class="triangle-float2"></path><path d="M104.232,836.774C160.785,839.31,219.054,823.627,250.908,776.829C286.889,723.967,297.375,654.461,266.407,598.514C234.592,541.036,169.869,509.053,104.232,511.838C42.933,514.439,-8.452,556.382,-35.741,611.333C-60.207,660.6,-50.316,717.889,-21.3,764.622C5.986,808.569,52.555,834.457,104.232,836.774" fill="rgba(12, 23, 47, 0.72)" class="triangle-float2"></path><path d="M8.501162545393228 5.548675737225551L109.80092367514511 188.29828241288598 292.55053035080556 86.9985212831341 191.25076922105364-95.75108539252633z" fill="rgba(12, 23, 47, 0.72)" class="triangle-float2"></path><path d="M1422.752,932.567C1487.326,935.152,1560.725,927.69,1593.117,871.768C1625.556,815.764,1597.596,746.997,1561.262,693.438C1529.878,647.175,1478.589,623.375,1422.752,620.635C1360.604,617.585,1291.373,625.746,1258.509,678.582C1224.33,733.532,1239.342,804.67,1274.482,859.011C1306.592,908.665,1363.667,930.201,1422.752,932.567" fill="rgba(12, 23, 47, 0.72)" class="triangle-float3"></path><path d="M182.94702666484275 839.1852759156343L429.6559312996042 653.2767816316857 243.7474370156557 406.56787699692427-2.9614676191057754 592.4763712808729z" fill="rgba(12, 23, 47, 0.72)" class="triangle-float2"></path><path d="M1020.3419535700816 589.3171099736941L1171.082447001953 479.79773080292676 1061.5630678311857 329.0572373710554 910.8225743993142 438.5766165418228z" fill="rgba(12, 23, 47, 0.72)" class="triangle-float2"></path><path d="M416.923,641.447C448.163,643.166,482.944,637.972,499.099,611.178C515.616,583.784,504.905,549.874,488.798,522.237C472.833,494.844,448.619,470.972,416.923,470.178C384.037,469.354,353.504,489.183,338.528,518.472C324.687,545.543,332.708,577.282,349.052,602.92C364.041,626.432,389.082,639.915,416.923,641.447" fill="rgba(12, 23, 47, 0.72)" class="triangle-float3"></path><path d="M703.28329028579-125.40777686257663L513.0721010299261-206.14763646296979 487.0679062572683 119.5390772210227z" fill="rgba(12, 23, 47, 0.72)" class="triangle-float2"></path></g><defs><mask id="SvgjsMask2641"><rect width="1920" height="1080" fill="#ffffff"></rect></mask><radialGradient cx="50%" cy="50%" r="1101.45" gradientUnits="userSpaceOnUse" id="SvgjsRadialGradient2642"><stop stop-color="rgba(26, 38, 48, 1)" offset="0"></stop><stop stop-color="rgba(58, 81, 98, 1)" offset="0.67"></stop><stop stop-color="rgba(1, 14, 24, 1)" offset="1"></stop></radialGradient><style>
                @keyframes float1 {
                    0%{transform: translate(0, 0)}
                    50%{transform: translate(-10px, 0)}
                    100%{transform: translate(0, 0)}
                }

                .triangle-float1 {
                    animation: float1 5s infinite;
                }

                @keyframes float2 {
                    0%{transform: translate(0, 0)}
                    50%{transform: translate(-5px, -5px)}
                    100%{transform: translate(0, 0)}
                }

                .triangle-float2 {
                    animation: float2 4s infinite;
                }

                @keyframes float3 {
                    0%{transform: translate(0, 0)}
                    50%{transform: translate(0, -10px)}
                    100%{transform: translate(0, 0)}
                }

                .triangle-float3 {
                    animation: float3 6s infinite;
                }
            </style></defs></svg>