<svg xmlns="http://www.w3.org/2000/svg" version="1.1" xmlns:xlink="http://www.w3.org/1999/xlink" xmlns:svgjs="http://svgjs.dev/svgjs" width="1440" height="560" preserveAspectRatio="none" viewBox="0 0 1440 560"><g mask="url(&quot;#SvgjsMask1347&quot;)" fill="none"><rect width="1440" height="560" x="0" y="0" fill="url(&quot;#SvgjsRadialGradient1348&quot;)"></rect><path d="M1185.4025519610516 315.7006680870854L1345.2977753294847 263.9159796961664 1237.8464091856742 163.71595974096147z" fill="rgba(28, 83, 142, 0.4)" class="triangle-float3"></path><path d="M-26.02792082795046 289.03358319968703L84.59863643620581 277.40626349836333 11.844378252142121 117.28008745279078z" fill="rgba(28, 83, 142, 0.4)" class="triangle-float2"></path><path d="M214.6775325580268 543.6420601988253L372.53982356157235 601.0992352371851 429.9969985999321 443.2369442336396 272.13470759638653 385.7797691952798z" fill="rgba(28, 83, 142, 0.4)" class="triangle-float2"></path><path d="M113.86 138.68 a106.3 106.3 0 1 0 212.6 0 a106.3 106.3 0 1 0 -212.6 0z" fill="rgba(28, 83, 142, 0.4)" class="triangle-float2"></path><path d="M1047.737,659.135C1101.249,656.653,1140.676,613.718,1165.408,566.199C1188.014,522.764,1192.195,471.398,1167.429,429.157C1142.932,387.374,1096.125,367.615,1047.737,365.493C994.604,363.162,937.356,373.207,908.363,417.793C877.146,465.799,880.867,528.482,909.504,578.07C938.135,627.649,990.547,661.788,1047.737,659.135" fill="rgba(28, 83, 142, 0.4)" class="triangle-float2"></path><path d="M9.354,260.357C35.545,261.436,57.618,242.056,69.881,218.888C81.348,197.223,79.329,171.838,67.6,150.313C55.274,127.692,35.11,108.318,9.354,107.81C-17.135,107.288,-41.297,124.172,-53.012,147.935C-63.601,169.415,-54.725,193.29,-43.108,214.231C-31.001,236.055,-15.582,259.329,9.354,260.357" fill="rgba(28, 83, 142, 0.4)" class="triangle-float1"></path><path d="M243.04831288222115 86.84549192904453L164.8043025840742 96.45264837678485 218.33704240475817 209.01508560013514z" fill="rgba(28, 83, 142, 0.4)" class="triangle-float1"></path><path d="M1242.5595895275326 618.4837931998723L1387.1336888256965 585.1062324112976 1353.7561280371217 440.5321331131338 1209.182028738958 473.90969390170847z" fill="rgba(28, 83, 142, 0.4)" class="triangle-float1"></path><path d="M89.43333603814985 450.5031362824784L19.92407689761918 570.6321660773243 141.22943609296252 572.7495589982198z" fill="rgba(28, 83, 142, 0.4)" class="triangle-float3"></path><path d="M498.31488539056306 184.7892059660047L476.9207802600477 31.502395687537273 368.86892269700365 112.9253105752993z" fill="rgba(28, 83, 142, 0.4)" class="triangle-float3"></path><path d="M1064.3163379377127 532.9795508720722L1194.0841885265756 483.1663401271582 1144.2709777816617 353.39848953829517 1014.5031271927987 403.21170028320915z" fill="rgba(28, 83, 142, 0.4)" class="triangle-float3"></path><path d="M941.45 329.52 a167.64 167.64 0 1 0 335.28 0 a167.64 167.64 0 1 0 -335.28 0z" fill="rgba(28, 83, 142, 0.4)" class="triangle-float1"></path><path d="M468.90522909992086 82.74530105189726L611.5887352569249 92.72270375437878 621.5661379594064-49.96080240262529 478.8826318024024-59.93820510510682z" fill="rgba(28, 83, 142, 0.4)" class="triangle-float3"></path><path d="M1019 282.05 a180.06 180.06 0 1 0 360.12 0 a180.06 180.06 0 1 0 -360.12 0z" fill="rgba(28, 83, 142, 0.4)" class="triangle-float3"></path><path d="M636.1811282760535 505.13174829503566L537.3166203315473 378.5909486305787 410.7758206670903 477.455456575085 509.64032861159654 603.9962562395419z" fill="rgba(28, 83, 142, 0.4)" class="triangle-float2"></path></g><defs><mask id="SvgjsMask1347"><rect width="1440" height="560" fill="#ffffff"></rect></mask><radialGradient cx="50%" cy="50%" r="772.53" gradientUnits="userSpaceOnUse" id="SvgjsRadialGradient1348"><stop stop-color="rgba(0, 69, 158, 1)" offset="0"></stop><stop stop-color="rgba(14, 42, 71, 1)" offset="1"></stop></radialGradient><style>
                @keyframes float1 {
                    0%{transform: translate(0, 0)}
                    50%{transform: translate(-10px, 0)}
                    100%{transform: translate(0, 0)}
                }

                .triangle-float1 {
                    animation: float1 5s infinite;
                }

                @keyframes float2 {
                    0%{transform: translate(0, 0)}
                    50%{transform: translate(-5px, -5px)}
                    100%{transform: translate(0, 0)}
                }

                .triangle-float2 {
                    animation: float2 4s infinite;
                }

                @keyframes float3 {
                    0%{transform: translate(0, 0)}
                    50%{transform: translate(0, -10px)}
                    100%{transform: translate(0, 0)}
                }

                .triangle-float3 {
                    animation: float3 6s infinite;
                }
            </style></defs></svg>