<svg xmlns="http://www.w3.org/2000/svg" version="1.1" xmlns:xlink="http://www.w3.org/1999/xlink" xmlns:svgjs="http://svgjs.dev/svgjs" width="1440" height="560" preserveAspectRatio="none" viewBox="0 0 1440 560"><g mask="url(&quot;#SvgjsMask1217&quot;)" fill="none"><rect width="1440" height="560" x="0" y="0" fill="rgba(255, 255, 255, 1)"></rect><path d="M574.76 220.45000000000002 L435.23 80.65L617.7994363212183 37.745563678781764z" fill="rgba(255, 100, 37, 1)"></path><path d="M655.73 601.05 L618.23 572.11L669.7055927130324 553.8544072869676z" fill="rgba(233, 61, 212, 1)"></path><path d="M1224.03 554.9300000000001 L1253.84 545.28L1225.541916350166 536.711916350166z" stroke="rgba(255, 100, 37, 1)" stroke-width="2.5" stroke-dasharray="3, 3"></path><path d="M663.82 492.89L671.2 503.36 662.6 512.86 669.98 523.33 661.38 532.82 668.76 543.29 660.16 552.78M655.84 492.41L663.21 502.87 654.62 512.37 661.99 522.84 653.4 532.33 660.77 542.8 652.17 552.29M647.85 491.92L655.23 502.39 646.63 511.88 654.01 522.35 645.41 531.84 652.79 542.31 644.19 551.8" stroke="rgba(233, 61, 212, 1)" stroke-width="1.68" stroke-dasharray="2, 2"></path><path d="M569.55 149.59 L568.03 114.42L548.1910430303517 152.60395696964832z" fill="#e73635"></path><rect width="132" height="132" clip-path="url(&quot;#SvgjsClipPath1218&quot;)" x="298.04" y="175.43" fill="url(&quot;#SvgjsPattern1219&quot;)" transform="rotate(38.63, 364.04, 241.43)"></rect><path d="M1070.37 399.07L1076.51 387.83 1088.82 391.35 1094.96 380.12 1107.27 383.64 1113.41 372.4 1125.72 375.92M1073.45 406.45L1079.59 395.21 1091.91 398.73 1098.04 387.5 1110.36 391.02 1116.49 379.78 1128.81 383.3" stroke="#e73635" stroke-width="1.35"></path><rect width="228" height="228" clip-path="url(&quot;#SvgjsClipPath1220&quot;)" x="903.77" y="195.42" fill="url(&quot;#SvgjsPattern1221&quot;)" transform="rotate(166.42, 1017.77, 309.42)"></rect><rect width="131.6" height="131.6" clip-path="url(&quot;#SvgjsClipPath1222&quot;)" x="724.21" y="142.14" fill="url(&quot;#SvgjsPattern1223&quot;)" transform="rotate(36.68, 790.01, 207.94)"></rect><path d="M135.92 240.62L145.45 249.18 139.2 260.35 148.73 268.91 142.48 280.08 152.01 288.64 145.76 299.81M128.03 241.94L137.56 250.49 131.31 261.67 140.84 270.22 134.59 281.39 144.12 289.95 137.87 301.12M120.14 243.25L129.67 251.8 123.42 262.98 132.95 271.53 126.7 282.71 136.23 291.26 129.98 302.44" stroke="#e73635" stroke-width="2.35" stroke-dasharray="3, 3"></path><path d="M326.3 320.21L327.56 307.46 340.27 305.89 341.53 293.15 354.24 291.58 355.5 278.83 368.21 277.26" stroke="rgba(233, 61, 212, 1)" stroke-width="1.98" stroke-dasharray="2, 2"></path><path d="M1294.6 299.09a5.6 5.6 0 1 0 1.93-11.03 5.6 5.6 0 1 0-1.93 11.03zM1297.36 283.33a5.6 5.6 0 1 0 1.92-11.03 5.6 5.6 0 1 0-1.92 11.03zM1300.11 267.57a5.6 5.6 0 1 0 1.93-11.03 5.6 5.6 0 1 0-1.93 11.03zM1302.86 251.81a5.6 5.6 0 1 0 1.93-11.03 5.6 5.6 0 1 0-1.93 11.03zM1304.86 333.37a5.6 5.6 0 1 0 1.92-11.03 5.6 5.6 0 1 0-1.92 11.03zM1307.61 317.61a5.6 5.6 0 1 0 1.93-11.03 5.6 5.6 0 1 0-1.93 11.03zM1310.36 301.85a5.6 5.6 0 1 0 1.93-11.03 5.6 5.6 0 1 0-1.93 11.03zM1313.12 286.09a5.6 5.6 0 1 0 1.92-11.04 5.6 5.6 0 1 0-1.92 11.04zM1315.11 367.65a5.6 5.6 0 1 0 1.93-11.04 5.6 5.6 0 1 0-1.93 11.04zM1317.86 351.89a5.6 5.6 0 1 0 1.93-11.04 5.6 5.6 0 1 0-1.93 11.04zM1320.62 336.12a5.6 5.6 0 1 0 1.92-11.03 5.6 5.6 0 1 0-1.92 11.03zM1323.37 320.36a5.6 5.6 0 1 0 1.93-11.03 5.6 5.6 0 1 0-1.93 11.03z" fill="rgba(20, 211, 186, 1)"></path></g><defs><mask id="SvgjsMask1217"><rect width="1440" height="560" fill="#ffffff"></rect></mask><pattern x="0" y="0" width="132" height="6" patternUnits="userSpaceOnUse" id="SvgjsPattern1219"><rect width="132" height="3" x="0" y="0" fill="#e73635"></rect><rect width="132" height="3" x="0" y="3" fill="rgba(0, 0, 0, 0)"></rect></pattern><clipPath id="SvgjsClipPath1218"><circle r="33" cx="364.04" cy="241.43"></circle></clipPath><pattern x="0" y="0" width="6" height="6" patternUnits="userSpaceOnUse" id="SvgjsPattern1221"><path d="M0 6L3 0L6 6" stroke="rgba(255, 100, 37, 1)" fill="none"></path></pattern><clipPath id="SvgjsClipPath1220"><circle r="57" cx="1017.77" cy="309.42"></circle></clipPath><pattern x="0" y="0" width="13.16" height="13.16" patternUnits="userSpaceOnUse" id="SvgjsPattern1223"><path d="M0 13.16L6.58 0L13.16 13.16" stroke="rgba(20, 211, 186, 1)" fill="none"></path></pattern><clipPath id="SvgjsClipPath1222"><circle r="32.9" cx="790.01" cy="207.94"></circle></clipPath></defs></svg>