<svg xmlns="http://www.w3.org/2000/svg" version="1.1" xmlns:xlink="http://www.w3.org/1999/xlink" xmlns:svgjs="http://svgjs.dev/svgjs" width="1440" height="560" preserveAspectRatio="none" viewBox="0 0 1440 560"><g mask="url(&quot;#SvgjsMask1101&quot;)" fill="none"><rect width="1440" height="560" x="0" y="0" fill="rgba(255, 255, 255, 1)"></rect><path d="M1303.64 38.05a5.6 5.6 0 1 0-9.53-5.89 5.6 5.6 0 1 0 9.53 5.89zM1290.03 29.64a5.6 5.6 0 1 0-9.53-5.89 5.6 5.6 0 1 0 9.53 5.89zM1276.42 21.22a5.6 5.6 0 1 0-9.53-5.89 5.6 5.6 0 1 0 9.53 5.89zM1262.81 12.81a5.6 5.6 0 1 0-9.53-5.89 5.6 5.6 0 1 0 9.53 5.89zM1339.27 41.27a5.6 5.6 0 1 0-9.53-5.89 5.6 5.6 0 1 0 9.53 5.89zM1325.66 32.86a5.6 5.6 0 1 0-9.53-5.89 5.6 5.6 0 1 0 9.53 5.89zM1312.05 24.44a5.6 5.6 0 1 0-9.52-5.89 5.6 5.6 0 1 0 9.52 5.89zM1298.44 16.03a5.6 5.6 0 1 0-9.52-5.89 5.6 5.6 0 1 0 9.52 5.89zM1374.9 44.49a5.6 5.6 0 1 0-9.53-5.89 5.6 5.6 0 1 0 9.53 5.89zM1361.29 36.08a5.6 5.6 0 1 0-9.52-5.89 5.6 5.6 0 1 0 9.52 5.89zM1347.68 27.66a5.6 5.6 0 1 0-9.52-5.89 5.6 5.6 0 1 0 9.52 5.89zM1334.07 19.25a5.6 5.6 0 1 0-9.52-5.89 5.6 5.6 0 1 0 9.52 5.89z" stroke="rgba(255, 100, 37, 1)" stroke-width="2.37" stroke-dasharray="3, 2"></path><rect width="353.08" height="353.08" clip-path="url(&quot;#SvgjsClipPath1102&quot;)" x="1145.31" y="6.13" fill="url(&quot;#SvgjsPattern1103&quot;)" transform="rotate(153.57, 1321.85, 182.67)"></rect><rect width="74.4" height="74.4" clip-path="url(&quot;#SvgjsClipPath1104&quot;)" x="253.17" y="431.19" fill="url(&quot;#SvgjsPattern1105&quot;)" transform="rotate(350.16, 290.37, 468.39)"></rect><rect width="144" height="144" clip-path="url(&quot;#SvgjsClipPath1106&quot;)" x="530.31" y="-58.8" fill="url(&quot;#SvgjsPattern1107&quot;)" transform="rotate(297.92, 602.31, 13.2)"></rect><path d="M901.13 176.9a5.6 5.6 0 1 0 9.49 5.94 5.6 5.6 0 1 0-9.49-5.94zM914.69 185.39a5.6 5.6 0 1 0 9.49 5.94 5.6 5.6 0 1 0-9.49-5.94zM928.25 193.88a5.6 5.6 0 1 0 9.49 5.95 5.6 5.6 0 1 0-9.49-5.95zM941.81 202.37a5.6 5.6 0 1 0 9.49 5.95 5.6 5.6 0 1 0-9.49-5.95zM865.51 173.47a5.6 5.6 0 1 0 9.5 5.94 5.6 5.6 0 1 0-9.5-5.94zM879.07 181.96a5.6 5.6 0 1 0 9.5 5.95 5.6 5.6 0 1 0-9.5-5.95zM892.63 190.46a5.6 5.6 0 1 0 9.5 5.94 5.6 5.6 0 1 0-9.5-5.94zM906.19 198.95a5.6 5.6 0 1 0 9.5 5.94 5.6 5.6 0 1 0-9.5-5.94zM829.9 170.04a5.6 5.6 0 1 0 9.49 5.95 5.6 5.6 0 1 0-9.49-5.95zM843.46 178.54a5.6 5.6 0 1 0 9.49 5.94 5.6 5.6 0 1 0-9.49-5.94zM857.02 187.03a5.6 5.6 0 1 0 9.49 5.94 5.6 5.6 0 1 0-9.49-5.94zM870.58 195.52a5.6 5.6 0 1 0 9.49 5.95 5.6 5.6 0 1 0-9.49-5.95z" fill="rgba(255, 100, 37, 1)"></path><path d="M204.43 545.04 L119.5 553.04L213.0347665744068 600.1097665744068z" fill="#d3b714"></path><rect width="228" height="228" clip-path="url(&quot;#SvgjsClipPath1108&quot;)" x="416.79" y="108.23" fill="url(&quot;#SvgjsPattern1109&quot;)" transform="rotate(191.04, 530.79, 222.23)"></rect><rect width="324.48" height="324.48" clip-path="url(&quot;#SvgjsClipPath1110&quot;)" x="50.34" y="-154.73" fill="url(&quot;#SvgjsPattern1111&quot;)" transform="rotate(55.42, 212.58, 7.51)"></rect><path d="M1223.32 84.74L1224.76 97.47 1212.66 101.66 1214.1 114.39 1202 118.58 1203.44 131.31 1191.34 135.51" stroke="rgba(255, 100, 37, 1)" stroke-width="1" stroke-dasharray="4, 4"></path><path d="M1128.75 61.4a5.6 5.6 0 1 0-2.36-10.95 5.6 5.6 0 1 0 2.36 10.95zM1125.38 45.76a5.6 5.6 0 1 0-2.35-10.95 5.6 5.6 0 1 0 2.35 10.95zM1122.02 30.12a5.6 5.6 0 1 0-2.36-10.95 5.6 5.6 0 1 0 2.36 10.95zM1118.65 14.48a5.6 5.6 0 1 0-2.35-10.95 5.6 5.6 0 1 0 2.35 10.95z" fill="#e73635"></path><path d="M34 55.34a5.6 5.6 0 1 0 11.1 1.49 5.6 5.6 0 1 0-11.1-1.49zM49.85 57.47a5.6 5.6 0 1 0 11.1 1.49 5.6 5.6 0 1 0-11.1-1.49zM65.71 59.6a5.6 5.6 0 1 0 11.1 1.49 5.6 5.6 0 1 0-11.1-1.49zM81.57 61.73a5.6 5.6 0 1 0 11.1 1.49 5.6 5.6 0 1 0-11.1-1.49z" stroke="rgba(255, 100, 37, 1)" stroke-width="1.14" stroke-dasharray="4, 4"></path><rect width="149.44" height="149.44" clip-path="url(&quot;#SvgjsClipPath1112&quot;)" x="714.22" y="199.49" fill="url(&quot;#SvgjsPattern1113&quot;)" transform="rotate(302.96, 788.94, 274.21)"></rect></g><defs><mask id="SvgjsMask1101"><rect width="1440" height="560" fill="#ffffff"></rect></mask><pattern x="0" y="0" width="353.08" height="13.58" patternUnits="userSpaceOnUse" id="SvgjsPattern1103"><rect width="353.08" height="6.79" x="0" y="0" fill="rgba(255, 100, 37, 1)"></rect><rect width="353.08" height="6.79" x="0" y="6.79" fill="rgba(0, 0, 0, 0)"></rect></pattern><clipPath id="SvgjsClipPath1102"><circle r="88.27" cx="1321.85" cy="182.67"></circle></clipPath><pattern x="0" y="0" width="7.44" height="7.44" patternUnits="userSpaceOnUse" id="SvgjsPattern1105"><path d="M0 7.44L3.72 0L7.44 7.44" stroke="#e73635" fill="none"></path></pattern><clipPath id="SvgjsClipPath1104"><circle r="18.6" cx="290.37" cy="468.39"></circle></clipPath><pattern x="0" y="0" width="6" height="6" patternUnits="userSpaceOnUse" id="SvgjsPattern1107"><path d="M3 1L3 5M1 3L5 3" stroke="#e73635" fill="none" stroke-width="1.11"></path></pattern><clipPath id="SvgjsClipPath1106"><circle r="36" cx="602.31" cy="13.2"></circle></clipPath><pattern x="0" y="0" width="228" height="6" patternUnits="userSpaceOnUse" id="SvgjsPattern1109"><rect width="228" height="3" x="0" y="0" fill="#d3b714"></rect><rect width="228" height="3" x="0" y="3" fill="rgba(0, 0, 0, 0)"></rect></pattern><clipPath id="SvgjsClipPath1108"><circle r="57" cx="530.79" cy="222.23"></circle></clipPath><pattern x="0" y="0" width="324.48" height="13.52" patternUnits="userSpaceOnUse" id="SvgjsPattern1111"><rect width="324.48" height="6.76" x="0" y="0" fill="#e73635"></rect><rect width="324.48" height="6.76" x="0" y="6.76" fill="rgba(0, 0, 0, 0)"></rect></pattern><clipPath id="SvgjsClipPath1110"><circle r="81.12" cx="212.58" cy="7.51"></circle></clipPath><pattern x="0" y="0" width="9.34" height="9.34" patternUnits="userSpaceOnUse" id="SvgjsPattern1113"><path d="M4.67 1L4.67 8.34M1 4.67L8.34 4.67" stroke="#d3b714" fill="none" stroke-width="1"></path></pattern><clipPath id="SvgjsClipPath1112"><circle r="37.36" cx="788.94" cy="274.21"></circle></clipPath></defs></svg>