<svg xmlns="http://www.w3.org/2000/svg" version="1.1" xmlns:xlink="http://www.w3.org/1999/xlink" xmlns:svgjs="http://svgjs.dev/svgjs" width="1440" height="560" preserveAspectRatio="none" viewBox="0 0 1440 560"><g mask="url(&quot;#SvgjsMask1028&quot;)" fill="none"><rect width="1440" height="560" x="0" y="0" fill="rgba(255, 255, 255, 1)"></rect><path d="M1029.01 91.64L1054.22 91.64L1054.22 116.85L1029.01 116.85z" stroke="rgba(255, 0, 165, 0.56)"></path><path d="M357.1 462.97 a30.87 30.87 0 1 0 61.74 0 a30.87 30.87 0 1 0 -61.74 0z" stroke="rgba(255, 0, 165, 0.56)"></path><path d="M601.59 551.17a0.51 0.51 0 1 0 0.7-0.74z" fill="rgba(31, 106, 255, 0.33)"></path><path d="M314 553.78L315.77 553.78L315.77 582.95L314 582.95z" stroke="rgba(255, 0, 165, 0.56)"></path><path d="M1110.22 324.55a6.37 6.37 0 1 0-12.73 0.2z" fill="rgba(231, 54, 53, 0.51)"></path><path d="M495.34 47.05 a17.75 17.75 0 1 0 35.5 0 a17.75 17.75 0 1 0 -35.5 0z" fill="rgba(255, 0, 165, 0.56)"></path><path d="M715.12 342.29L725.24 342.29L725.24 352.41L715.12 352.41z" stroke="rgba(255, 0, 165, 0.56)"></path><path d="M431.15 182.91L455.74 182.91L455.74 207.5L431.15 207.5z" stroke="rgba(231, 54, 53, 0.51)"></path><path d="M292.39 361.28L299.76 361.28L299.76 398.93L292.39 398.93z" stroke="rgba(255, 0, 165, 0.56)"></path><path d="M748.28 532.93 a35.71 35.71 0 1 0 71.42 0 a35.71 35.71 0 1 0 -71.42 0z" fill="rgba(255, 0, 165, 0.56)"></path><path d="M968.28 89.46 a47.38 47.38 0 1 0 94.76 0 a47.38 47.38 0 1 0 -94.76 0z" stroke="rgba(31, 106, 255, 0.33)"></path><path d="M168.58 84.09a55.48 55.48 0 1 0-20.84-108.98z" stroke="rgba(31, 106, 255, 0.33)"></path><path d="M387.9 238.06L422.03 238.06L422.03 272.19L387.9 272.19z" stroke="rgba(255, 0, 165, 0.56)"></path><path d="M39.61 174.29L68.17 174.29L68.17 202.85L39.61 202.85z" fill="rgba(231, 54, 53, 0.51)"></path><path d="M550.98 522.86 a8.92 8.92 0 1 0 17.84 0 a8.92 8.92 0 1 0 -17.84 0z" fill="rgba(231, 54, 53, 0.51)"></path><path d="M117.84 303.08L152.84 303.08L152.84 343.09L117.84 343.09z" stroke="rgba(31, 106, 255, 0.33)"></path><path d="M954.59 506.87 a40.56 40.56 0 1 0 81.12 0 a40.56 40.56 0 1 0 -81.12 0z" stroke="rgba(31, 106, 255, 0.33)"></path><path d="M1011.85 152.61 a41.36 41.36 0 1 0 82.72 0 a41.36 41.36 0 1 0 -82.72 0z" stroke="rgba(31, 106, 255, 0.33)"></path><path d="M1226.5 279.27L1261.9 279.27L1261.9 314.67L1226.5 314.67z" fill="rgba(31, 106, 255, 0.33)"></path><path d="M1063.05 398.24L1116.8 398.24L1116.8 451.99L1063.05 451.99z" fill="rgba(255, 0, 165, 0.56)"></path><path d="M512.2 145.85L524.21 145.85L524.21 175.09L512.2 175.09z" stroke="rgba(231, 54, 53, 0.51)"></path><path d="M125.49 423.25 a23.75 23.75 0 1 0 47.5 0 a23.75 23.75 0 1 0 -47.5 0z" stroke="rgba(231, 54, 53, 0.51)"></path><path d="M1175.17 545.58 a26.29 26.29 0 1 0 52.58 0 a26.29 26.29 0 1 0 -52.58 0z" stroke="rgba(31, 106, 255, 0.33)"></path><path d="M365.36 116.64 a27.18 27.18 0 1 0 54.36 0 a27.18 27.18 0 1 0 -54.36 0z" stroke="rgba(31, 106, 255, 0.33)"></path><path d="M1292.57 497.05 a4.37 4.37 0 1 0 8.74 0 a4.37 4.37 0 1 0 -8.74 0z" stroke="rgba(231, 54, 53, 0.51)"></path><path d="M77.07 298.75a9.25 9.25 0 1 0-0.54 18.49z" fill="rgba(31, 106, 255, 0.33)"></path><path d="M1361.42 34.35 a54.6 54.6 0 1 0 109.2 0 a54.6 54.6 0 1 0 -109.2 0z" fill="rgba(255, 0, 165, 0.56)"></path><path d="M1030.99 105.58a9.32 9.32 0 1 0-11.7-14.51z" stroke="rgba(231, 54, 53, 0.51)"></path><path d="M908.3 259.35L921.89 259.35L921.89 280.71L908.3 280.71z" fill="rgba(31, 106, 255, 0.33)"></path><path d="M1155.33 348.55 a55.92 55.92 0 1 0 111.84 0 a55.92 55.92 0 1 0 -111.84 0z" fill="rgba(31, 106, 255, 0.33)"></path><path d="M661.66 95.67 a1.04 1.04 0 1 0 2.08 0 a1.04 1.04 0 1 0 -2.08 0z" fill="rgba(255, 0, 165, 0.56)"></path><path d="M748.27 533.35L782.79 533.35L782.79 567.87L748.27 567.87z" stroke="rgba(255, 0, 165, 0.56)"></path><path d="M520.96 66.02L535.45 66.02L535.45 83.7L520.96 83.7z" stroke="rgba(255, 0, 165, 0.56)"></path></g><defs><mask id="SvgjsMask1028"><rect width="1440" height="560" fill="#ffffff"></rect></mask></defs></svg>