<svg xmlns="http://www.w3.org/2000/svg" version="1.1" xmlns:xlink="http://www.w3.org/1999/xlink" xmlns:svgjs="http://svgjs.dev/svgjs" width="1440" height="560" preserveAspectRatio="none" viewBox="0 0 1440 560"><g mask="url(&quot;#SvgjsMask1018&quot;)" fill="none"><rect width="1440" height="560" x="0" y="0" fill="rgba(255, 255, 255, 1)"></rect><path d="M737.3 548.26 a7.6 7.6 0 1 0 15.2 0 a7.6 7.6 0 1 0 -15.2 0z" fill="rgba(31, 106, 255, 0.33)"></path><path d="M653.13 393.68L703.65 393.68L703.65 397.92L653.13 397.92z" stroke="rgba(31, 106, 255, 0.33)"></path><path d="M321.67 528.1a0.11 0.11 0 1 0 0.07 0.2z" fill="rgba(31, 106, 255, 0.33)"></path><path d="M818.6 465.33 a10.37 10.37 0 1 0 20.74 0 a10.37 10.37 0 1 0 -20.74 0z" fill="rgba(31, 106, 255, 0.33)"></path><path d="M947.6 78.22 a50.47 50.47 0 1 0 100.94 0 a50.47 50.47 0 1 0 -100.94 0z" stroke="rgba(231, 54, 53, 0.51)"></path><path d="M1210.9 339.48L1261.56 339.48L1261.56 388.77L1210.9 388.77z" stroke="rgba(255, 0, 165, 0.56)"></path><path d="M1324.58 132.97a3.08 3.08 0 1 0 3.8-4.85z" fill="rgba(31, 106, 255, 0.33)"></path><path d="M1436.4 420.06L1458.25 420.06L1458.25 441.91L1436.4 441.91z" fill="rgba(255, 0, 165, 0.56)"></path><path d="M1096.96 269.12a43.78 43.78 0 1 0-74.12-46.62z" stroke="rgba(255, 0, 165, 0.56)"></path><path d="M199.69 225.4 a7.1 7.1 0 1 0 14.2 0 a7.1 7.1 0 1 0 -14.2 0z" fill="rgba(255, 0, 165, 0.56)"></path><path d="M746.57 440.24L801.67 440.24L801.67 495.34L746.57 495.34z" stroke="rgba(31, 106, 255, 0.33)"></path><path d="M232.11 413.74 a45.46 45.46 0 1 0 90.92 0 a45.46 45.46 0 1 0 -90.92 0z" fill="rgba(255, 0, 165, 0.56)"></path><path d="M268.82 183.47 a53.85 53.85 0 1 0 107.7 0 a53.85 53.85 0 1 0 -107.7 0z" stroke="rgba(31, 106, 255, 0.33)"></path><path d="M24.19 404.24L44.86 404.24L44.86 424.91L24.19 424.91z" stroke="rgba(231, 54, 53, 0.51)"></path><path d="M1377.9 200.7 a4.9 4.9 0 1 0 9.8 0 a4.9 4.9 0 1 0 -9.8 0z" fill="rgba(255, 0, 165, 0.56)"></path><path d="M283.03 518.47L326.93 518.47L326.93 533.83L283.03 533.83z" fill="rgba(231, 54, 53, 0.51)"></path><path d="M1087.73 15.38L1093.97 15.38L1093.97 21.62L1087.73 21.62z" fill="rgba(31, 106, 255, 0.33)"></path><path d="M621.32 314.86 a16.14 16.14 0 1 0 32.28 0 a16.14 16.14 0 1 0 -32.28 0z" fill="rgba(31, 106, 255, 0.33)"></path><path d="M1209.46 134L1209.95 134L1209.95 183.81L1209.46 183.81z" fill="rgba(255, 0, 165, 0.56)"></path><path d="M1370.35 258.73L1415.55 258.73L1415.55 311.04L1370.35 311.04z" stroke="rgba(31, 106, 255, 0.33)"></path><path d="M236.43 83.41 a1.04 1.04 0 1 0 2.08 0 a1.04 1.04 0 1 0 -2.08 0z" fill="rgba(31, 106, 255, 0.33)"></path><path d="M183.38 39.99a34.44 34.44 0 1 0 38.42 57.17z" fill="rgba(231, 54, 53, 0.51)"></path><path d="M1399.94 362.37L1422.04 362.37L1422.04 384.47L1399.94 384.47z" fill="rgba(231, 54, 53, 0.51)"></path><path d="M84.35 245.91a20.25 20.25 0 1 0-13.45 38.2z" stroke="rgba(231, 54, 53, 0.51)"></path><path d="M666.62 442.55a51.29 51.29 0 1 0 86.52-55.1z" fill="rgba(231, 54, 53, 0.51)"></path><path d="M1104.54 2.78L1155.67 2.78L1155.67 53.91L1104.54 53.91z" stroke="rgba(255, 0, 165, 0.56)"></path><path d="M1016.1 14.35 a30.22 30.22 0 1 0 60.44 0 a30.22 30.22 0 1 0 -60.44 0z" stroke="rgba(31, 106, 255, 0.33)"></path><path d="M544.65 209.52a5.96 5.96 0 1 0-0.47 11.91z" stroke="rgba(255, 0, 165, 0.56)"></path><path d="M155.41 22.38L196.63 22.38L196.63 63.6L155.41 63.6z" stroke="rgba(231, 54, 53, 0.51)"></path><path d="M1238.74 435.57L1252.79 435.57L1252.79 449.62L1238.74 449.62z" stroke="rgba(255, 0, 165, 0.56)"></path><path d="M916.04 341.06L938.1 341.06L938.1 347.55L916.04 347.55z" stroke="rgba(31, 106, 255, 0.33)"></path><path d="M52.87 492.08 a6.31 6.31 0 1 0 12.62 0 a6.31 6.31 0 1 0 -12.62 0z" stroke="rgba(31, 106, 255, 0.33)"></path><path d="M290.31 28.4a53.49 53.49 0 1 0-9.04 106.6z" stroke="rgba(31, 106, 255, 0.33)"></path></g><defs><mask id="SvgjsMask1018"><rect width="1440" height="560" fill="#ffffff"></rect></mask></defs></svg>