<svg xmlns="http://www.w3.org/2000/svg" version="1.1" xmlns:xlink="http://www.w3.org/1999/xlink" xmlns:svgjs="http://svgjs.dev/svgjs" width="1920" height="1080" preserveAspectRatio="none" viewBox="0 0 1920 1080"><g mask="url(&quot;#SvgjsMask1279&quot;)" fill="none"><rect width="1920" height="1080" x="0" y="0" fill="#0e2a47"></rect><path d="M44.58 392.81L109.53 430.31L109.53 505.31L44.58 542.81L-20.37 505.31L-20.37 430.31zM44.58 617.81L109.53 655.31L109.53 730.31L44.58 767.81L-20.37 730.31L-20.37 655.31zM109.53 955.31L174.49 992.81L174.49 1067.81L109.53 1105.31L44.58 1067.81L44.58 992.81zM239.44 55.31L304.39 92.81L304.39 167.81L239.44 205.31L174.49 167.81L174.49 92.81zM174.49 167.81L239.44 205.31L239.44 280.31L174.49 317.81L109.53 280.31L109.53 205.31zM239.44 505.31L304.39 542.81L304.39 617.81L239.44 655.31L174.49 617.81L174.49 542.81zM239.44 955.31L304.39 992.81L304.39 1067.81L239.44 1105.31L174.49 1067.81L174.49 992.81zM174.49 1067.81L239.44 1105.31L239.44 1180.31L174.49 1217.81L109.53 1180.31L109.53 1105.31zM304.39 -57.19L369.35 -19.69L369.35 55.31L304.39 92.81L239.44 55.31L239.44 -19.69zM369.35 55.31L434.3 92.81L434.3 167.81L369.35 205.31L304.39 167.81L304.39 92.81zM304.39 617.81L369.35 655.31L369.35 730.31L304.39 767.81L239.44 730.31L239.44 655.31zM434.3 -57.19L499.26 -19.69L499.26 55.31L434.3 92.81L369.35 55.31L369.35 -19.69zM434.3 167.81L499.26 205.31L499.26 280.31L434.3 317.81L369.35 280.31L369.35 205.31zM434.3 392.81L499.26 430.31L499.26 505.31L434.3 542.81L369.35 505.31L369.35 430.31zM434.3 617.81L499.26 655.31L499.26 730.31L434.3 767.81L369.35 730.31L369.35 655.31zM499.26 730.31L564.21 767.81L564.21 842.81L499.26 880.31L434.3 842.81L434.3 767.81zM629.16 55.31L694.12 92.81L694.12 167.81L629.16 205.31L564.21 167.81L564.21 92.81zM564.21 392.81L629.16 430.31L629.16 505.31L564.21 542.81L499.26 505.31L499.26 430.31zM629.16 955.31L694.12 992.81L694.12 1067.81L629.16 1105.31L564.21 1067.81L564.21 992.81zM759.07 55.31L824.03 92.81L824.03 167.81L759.07 205.31L694.12 167.81L694.12 92.81zM759.07 280.31L824.03 317.81L824.03 392.81L759.07 430.31L694.12 392.81L694.12 317.81zM759.07 505.31L824.03 542.81L824.03 617.81L759.07 655.31L694.12 617.81L694.12 542.81zM694.12 617.81L759.07 655.31L759.07 730.31L694.12 767.81L629.16 730.31L629.16 655.31zM694.12 1067.81L759.07 1105.31L759.07 1180.31L694.12 1217.81L629.16 1180.31L629.16 1105.31zM824.02 -57.19L888.98 -19.69L888.98 55.31L824.02 92.81L759.07 55.31L759.07 -19.69zM888.98 55.31L953.93 92.81L953.93 167.81L888.98 205.31L824.02 167.81L824.02 92.81zM824.02 392.81L888.98 430.31L888.98 505.31L824.02 542.81L759.07 505.31L759.07 430.31zM888.98 505.31L953.93 542.81L953.93 617.81L888.98 655.31L824.02 617.81L824.02 542.81zM888.98 730.31L953.93 767.81L953.93 842.81L888.98 880.31L824.02 842.81L824.02 767.81zM824.02 842.81L888.98 880.31L888.98 955.31L824.02 992.81L759.07 955.31L759.07 880.31zM1018.89 730.31L1083.84 767.81L1083.84 842.81L1018.89 880.31L953.93 842.81L953.93 767.81zM1148.79 55.31L1213.75 92.81L1213.75 167.81L1148.79 205.31L1083.84 167.81L1083.84 92.81zM1083.84 167.81L1148.79 205.31L1148.79 280.31L1083.84 317.81L1018.89 280.31L1018.89 205.31zM1148.79 730.31L1213.75 767.81L1213.75 842.81L1148.79 880.31L1083.84 842.81L1083.84 767.81zM1148.79 955.31L1213.75 992.81L1213.75 1067.81L1148.79 1105.31L1083.84 1067.81L1083.84 992.81zM1278.7 55.31L1343.65 92.81L1343.65 167.81L1278.7 205.31L1213.75 167.81L1213.75 92.81zM1213.75 167.81L1278.7 205.31L1278.7 280.31L1213.75 317.81L1148.79 280.31L1148.79 205.31zM1213.75 617.81L1278.7 655.31L1278.7 730.31L1213.75 767.81L1148.79 730.31L1148.79 655.31zM1278.7 730.31L1343.65 767.81L1343.65 842.81L1278.7 880.31L1213.75 842.81L1213.75 767.81zM1213.75 1067.81L1278.7 1105.31L1278.7 1180.31L1213.75 1217.81L1148.79 1180.31L1148.79 1105.31zM1343.65 -57.19L1408.61 -19.69L1408.61 55.31L1343.65 92.81L1278.7 55.31L1278.7 -19.69zM1473.56 392.81L1538.52 430.31L1538.52 505.31L1473.56 542.81L1408.61 505.31L1408.61 430.31zM1473.56 842.81L1538.52 880.31L1538.52 955.31L1473.56 992.81L1408.61 955.31L1408.61 880.31zM1538.52 955.31L1603.47 992.81L1603.47 1067.81L1538.52 1105.31L1473.56 1067.81L1473.56 992.81zM1603.47 -57.19L1668.42 -19.69L1668.42 55.31L1603.47 92.81L1538.52 55.31L1538.52 -19.69zM1603.47 167.81L1668.42 205.31L1668.42 280.31L1603.47 317.81L1538.52 280.31L1538.52 205.31zM1668.42 730.31L1733.38 767.81L1733.38 842.81L1668.42 880.31L1603.47 842.81L1603.47 767.81zM1603.47 1067.81L1668.42 1105.31L1668.42 1180.31L1603.47 1217.81L1538.52 1180.31L1538.52 1105.31zM1733.38 167.81L1798.33 205.31L1798.33 280.31L1733.38 317.81L1668.42 280.31L1668.42 205.31zM1798.33 505.31L1863.28 542.81L1863.28 617.81L1798.33 655.31L1733.38 617.81L1733.38 542.81zM1798.33 730.31L1863.28 767.81L1863.28 842.81L1798.33 880.31L1733.38 842.81L1733.38 767.81zM1733.38 842.81L1798.33 880.31L1798.33 955.31L1733.38 992.81L1668.42 955.31L1668.42 880.31zM1798.33 955.31L1863.28 992.81L1863.28 1067.81L1798.33 1105.31L1733.38 1067.81L1733.38 992.81zM1863.28 -57.19L1928.24 -19.69L1928.24 55.31L1863.28 92.81L1798.33 55.31L1798.33 -19.69zM1928.24 55.31L1993.19 92.81L1993.19 167.81L1928.24 205.31L1863.28 167.81L1863.28 92.81zM1863.28 167.81L1928.24 205.31L1928.24 280.31L1863.28 317.81L1798.33 280.31L1798.33 205.31zM1863.28 1067.81L1928.24 1105.31L1928.24 1180.31L1863.28 1217.81L1798.33 1180.31L1798.33 1105.31z" stroke="url(&quot;#SvgjsRadialGradient1280&quot;)" stroke-width="2"></path><path d="M37.08 392.81 a7.5 7.5 0 1 0 15 0 a7.5 7.5 0 1 0 -15 0zM102.03 430.31 a7.5 7.5 0 1 0 15 0 a7.5 7.5 0 1 0 -15 0zM102.03 505.31 a7.5 7.5 0 1 0 15 0 a7.5 7.5 0 1 0 -15 0zM37.08 542.81 a7.5 7.5 0 1 0 15 0 a7.5 7.5 0 1 0 -15 0zM-27.87 505.31 a7.5 7.5 0 1 0 15 0 a7.5 7.5 0 1 0 -15 0zM-27.87 430.31 a7.5 7.5 0 1 0 15 0 a7.5 7.5 0 1 0 -15 0zM37.08 617.81 a7.5 7.5 0 1 0 15 0 a7.5 7.5 0 1 0 -15 0zM102.03 655.31 a7.5 7.5 0 1 0 15 0 a7.5 7.5 0 1 0 -15 0zM102.03 730.31 a7.5 7.5 0 1 0 15 0 a7.5 7.5 0 1 0 -15 0zM37.08 767.81 a7.5 7.5 0 1 0 15 0 a7.5 7.5 0 1 0 -15 0zM-27.87 730.31 a7.5 7.5 0 1 0 15 0 a7.5 7.5 0 1 0 -15 0zM-27.87 655.31 a7.5 7.5 0 1 0 15 0 a7.5 7.5 0 1 0 -15 0zM102.03 955.31 a7.5 7.5 0 1 0 15 0 a7.5 7.5 0 1 0 -15 0zM166.99 992.81 a7.5 7.5 0 1 0 15 0 a7.5 7.5 0 1 0 -15 0zM166.99 1067.81 a7.5 7.5 0 1 0 15 0 a7.5 7.5 0 1 0 -15 0zM102.03 1105.31 a7.5 7.5 0 1 0 15 0 a7.5 7.5 0 1 0 -15 0zM37.08 1067.81 a7.5 7.5 0 1 0 15 0 a7.5 7.5 0 1 0 -15 0zM37.08 992.81 a7.5 7.5 0 1 0 15 0 a7.5 7.5 0 1 0 -15 0zM231.94 55.31 a7.5 7.5 0 1 0 15 0 a7.5 7.5 0 1 0 -15 0zM296.89 92.81 a7.5 7.5 0 1 0 15 0 a7.5 7.5 0 1 0 -15 0zM296.89 167.81 a7.5 7.5 0 1 0 15 0 a7.5 7.5 0 1 0 -15 0zM231.94 205.31 a7.5 7.5 0 1 0 15 0 a7.5 7.5 0 1 0 -15 0zM166.99 167.81 a7.5 7.5 0 1 0 15 0 a7.5 7.5 0 1 0 -15 0zM166.99 92.81 a7.5 7.5 0 1 0 15 0 a7.5 7.5 0 1 0 -15 0zM231.94 280.31 a7.5 7.5 0 1 0 15 0 a7.5 7.5 0 1 0 -15 0zM166.99 317.81 a7.5 7.5 0 1 0 15 0 a7.5 7.5 0 1 0 -15 0zM102.03 280.31 a7.5 7.5 0 1 0 15 0 a7.5 7.5 0 1 0 -15 0zM102.03 205.31 a7.5 7.5 0 1 0 15 0 a7.5 7.5 0 1 0 -15 0zM231.94 505.31 a7.5 7.5 0 1 0 15 0 a7.5 7.5 0 1 0 -15 0zM296.89 542.81 a7.5 7.5 0 1 0 15 0 a7.5 7.5 0 1 0 -15 0zM296.89 617.81 a7.5 7.5 0 1 0 15 0 a7.5 7.5 0 1 0 -15 0zM231.94 655.31 a7.5 7.5 0 1 0 15 0 a7.5 7.5 0 1 0 -15 0zM166.99 617.81 a7.5 7.5 0 1 0 15 0 a7.5 7.5 0 1 0 -15 0zM166.99 542.81 a7.5 7.5 0 1 0 15 0 a7.5 7.5 0 1 0 -15 0zM231.94 955.31 a7.5 7.5 0 1 0 15 0 a7.5 7.5 0 1 0 -15 0zM296.89 992.81 a7.5 7.5 0 1 0 15 0 a7.5 7.5 0 1 0 -15 0zM296.89 1067.81 a7.5 7.5 0 1 0 15 0 a7.5 7.5 0 1 0 -15 0zM231.94 1105.31 a7.5 7.5 0 1 0 15 0 a7.5 7.5 0 1 0 -15 0zM231.94 1180.31 a7.5 7.5 0 1 0 15 0 a7.5 7.5 0 1 0 -15 0zM166.99 1217.81 a7.5 7.5 0 1 0 15 0 a7.5 7.5 0 1 0 -15 0zM102.03 1180.31 a7.5 7.5 0 1 0 15 0 a7.5 7.5 0 1 0 -15 0zM296.89 -57.19 a7.5 7.5 0 1 0 15 0 a7.5 7.5 0 1 0 -15 0zM361.85 -19.69 a7.5 7.5 0 1 0 15 0 a7.5 7.5 0 1 0 -15 0zM361.85 55.31 a7.5 7.5 0 1 0 15 0 a7.5 7.5 0 1 0 -15 0zM231.94 -19.69 a7.5 7.5 0 1 0 15 0 a7.5 7.5 0 1 0 -15 0zM426.8 92.81 a7.5 7.5 0 1 0 15 0 a7.5 7.5 0 1 0 -15 0zM426.8 167.81 a7.5 7.5 0 1 0 15 0 a7.5 7.5 0 1 0 -15 0zM361.85 205.31 a7.5 7.5 0 1 0 15 0 a7.5 7.5 0 1 0 -15 0zM361.85 655.31 a7.5 7.5 0 1 0 15 0 a7.5 7.5 0 1 0 -15 0zM361.85 730.31 a7.5 7.5 0 1 0 15 0 a7.5 7.5 0 1 0 -15 0zM296.89 767.81 a7.5 7.5 0 1 0 15 0 a7.5 7.5 0 1 0 -15 0zM231.94 730.31 a7.5 7.5 0 1 0 15 0 a7.5 7.5 0 1 0 -15 0zM426.8 -57.19 a7.5 7.5 0 1 0 15 0 a7.5 7.5 0 1 0 -15 0zM491.76 -19.69 a7.5 7.5 0 1 0 15 0 a7.5 7.5 0 1 0 -15 0zM491.76 55.31 a7.5 7.5 0 1 0 15 0 a7.5 7.5 0 1 0 -15 0zM491.76 205.31 a7.5 7.5 0 1 0 15 0 a7.5 7.5 0 1 0 -15 0zM491.76 280.31 a7.5 7.5 0 1 0 15 0 a7.5 7.5 0 1 0 -15 0zM426.8 317.81 a7.5 7.5 0 1 0 15 0 a7.5 7.5 0 1 0 -15 0zM361.85 280.31 a7.5 7.5 0 1 0 15 0 a7.5 7.5 0 1 0 -15 0zM426.8 392.81 a7.5 7.5 0 1 0 15 0 a7.5 7.5 0 1 0 -15 0zM491.76 430.31 a7.5 7.5 0 1 0 15 0 a7.5 7.5 0 1 0 -15 0zM491.76 505.31 a7.5 7.5 0 1 0 15 0 a7.5 7.5 0 1 0 -15 0zM426.8 542.81 a7.5 7.5 0 1 0 15 0 a7.5 7.5 0 1 0 -15 0zM361.85 505.31 a7.5 7.5 0 1 0 15 0 a7.5 7.5 0 1 0 -15 0zM361.85 430.31 a7.5 7.5 0 1 0 15 0 a7.5 7.5 0 1 0 -15 0zM426.8 617.81 a7.5 7.5 0 1 0 15 0 a7.5 7.5 0 1 0 -15 0zM491.76 655.31 a7.5 7.5 0 1 0 15 0 a7.5 7.5 0 1 0 -15 0zM491.76 730.31 a7.5 7.5 0 1 0 15 0 a7.5 7.5 0 1 0 -15 0zM426.8 767.81 a7.5 7.5 0 1 0 15 0 a7.5 7.5 0 1 0 -15 0zM556.71 767.81 a7.5 7.5 0 1 0 15 0 a7.5 7.5 0 1 0 -15 0zM556.71 842.81 a7.5 7.5 0 1 0 15 0 a7.5 7.5 0 1 0 -15 0zM491.76 880.31 a7.5 7.5 0 1 0 15 0 a7.5 7.5 0 1 0 -15 0zM426.8 842.81 a7.5 7.5 0 1 0 15 0 a7.5 7.5 0 1 0 -15 0zM621.66 55.31 a7.5 7.5 0 1 0 15 0 a7.5 7.5 0 1 0 -15 0zM686.62 92.81 a7.5 7.5 0 1 0 15 0 a7.5 7.5 0 1 0 -15 0zM686.62 167.81 a7.5 7.5 0 1 0 15 0 a7.5 7.5 0 1 0 -15 0zM621.66 205.31 a7.5 7.5 0 1 0 15 0 a7.5 7.5 0 1 0 -15 0zM556.71 167.81 a7.5 7.5 0 1 0 15 0 a7.5 7.5 0 1 0 -15 0zM556.71 92.81 a7.5 7.5 0 1 0 15 0 a7.5 7.5 0 1 0 -15 0zM556.71 392.81 a7.5 7.5 0 1 0 15 0 a7.5 7.5 0 1 0 -15 0zM621.66 430.31 a7.5 7.5 0 1 0 15 0 a7.5 7.5 0 1 0 -15 0zM621.66 505.31 a7.5 7.5 0 1 0 15 0 a7.5 7.5 0 1 0 -15 0zM556.71 542.81 a7.5 7.5 0 1 0 15 0 a7.5 7.5 0 1 0 -15 0zM621.66 955.31 a7.5 7.5 0 1 0 15 0 a7.5 7.5 0 1 0 -15 0zM686.62 992.81 a7.5 7.5 0 1 0 15 0 a7.5 7.5 0 1 0 -15 0zM686.62 1067.81 a7.5 7.5 0 1 0 15 0 a7.5 7.5 0 1 0 -15 0zM621.66 1105.31 a7.5 7.5 0 1 0 15 0 a7.5 7.5 0 1 0 -15 0zM556.71 1067.81 a7.5 7.5 0 1 0 15 0 a7.5 7.5 0 1 0 -15 0zM556.71 992.81 a7.5 7.5 0 1 0 15 0 a7.5 7.5 0 1 0 -15 0zM751.57 55.31 a7.5 7.5 0 1 0 15 0 a7.5 7.5 0 1 0 -15 0zM816.53 92.81 a7.5 7.5 0 1 0 15 0 a7.5 7.5 0 1 0 -15 0zM816.53 167.81 a7.5 7.5 0 1 0 15 0 a7.5 7.5 0 1 0 -15 0zM751.57 205.31 a7.5 7.5 0 1 0 15 0 a7.5 7.5 0 1 0 -15 0zM751.57 280.31 a7.5 7.5 0 1 0 15 0 a7.5 7.5 0 1 0 -15 0zM816.53 317.81 a7.5 7.5 0 1 0 15 0 a7.5 7.5 0 1 0 -15 0zM816.53 392.81 a7.5 7.5 0 1 0 15 0 a7.5 7.5 0 1 0 -15 0zM751.57 430.31 a7.5 7.5 0 1 0 15 0 a7.5 7.5 0 1 0 -15 0zM686.62 392.81 a7.5 7.5 0 1 0 15 0 a7.5 7.5 0 1 0 -15 0zM686.62 317.81 a7.5 7.5 0 1 0 15 0 a7.5 7.5 0 1 0 -15 0zM751.57 505.31 a7.5 7.5 0 1 0 15 0 a7.5 7.5 0 1 0 -15 0zM816.53 542.81 a7.5 7.5 0 1 0 15 0 a7.5 7.5 0 1 0 -15 0zM816.53 617.81 a7.5 7.5 0 1 0 15 0 a7.5 7.5 0 1 0 -15 0zM751.57 655.31 a7.5 7.5 0 1 0 15 0 a7.5 7.5 0 1 0 -15 0zM686.62 617.81 a7.5 7.5 0 1 0 15 0 a7.5 7.5 0 1 0 -15 0zM686.62 542.81 a7.5 7.5 0 1 0 15 0 a7.5 7.5 0 1 0 -15 0zM751.57 730.31 a7.5 7.5 0 1 0 15 0 a7.5 7.5 0 1 0 -15 0zM686.62 767.81 a7.5 7.5 0 1 0 15 0 a7.5 7.5 0 1 0 -15 0zM621.66 730.31 a7.5 7.5 0 1 0 15 0 a7.5 7.5 0 1 0 -15 0zM621.66 655.31 a7.5 7.5 0 1 0 15 0 a7.5 7.5 0 1 0 -15 0zM751.57 1105.31 a7.5 7.5 0 1 0 15 0 a7.5 7.5 0 1 0 -15 0zM751.57 1180.31 a7.5 7.5 0 1 0 15 0 a7.5 7.5 0 1 0 -15 0zM686.62 1217.81 a7.5 7.5 0 1 0 15 0 a7.5 7.5 0 1 0 -15 0zM621.66 1180.31 a7.5 7.5 0 1 0 15 0 a7.5 7.5 0 1 0 -15 0zM816.52 -57.19 a7.5 7.5 0 1 0 15 0 a7.5 7.5 0 1 0 -15 0zM881.48 -19.69 a7.5 7.5 0 1 0 15 0 a7.5 7.5 0 1 0 -15 0zM881.48 55.31 a7.5 7.5 0 1 0 15 0 a7.5 7.5 0 1 0 -15 0zM816.52 92.81 a7.5 7.5 0 1 0 15 0 a7.5 7.5 0 1 0 -15 0zM751.57 -19.69 a7.5 7.5 0 1 0 15 0 a7.5 7.5 0 1 0 -15 0zM946.43 92.81 a7.5 7.5 0 1 0 15 0 a7.5 7.5 0 1 0 -15 0zM946.43 167.81 a7.5 7.5 0 1 0 15 0 a7.5 7.5 0 1 0 -15 0zM881.48 205.31 a7.5 7.5 0 1 0 15 0 a7.5 7.5 0 1 0 -15 0zM816.52 167.81 a7.5 7.5 0 1 0 15 0 a7.5 7.5 0 1 0 -15 0zM816.52 392.81 a7.5 7.5 0 1 0 15 0 a7.5 7.5 0 1 0 -15 0zM881.48 430.31 a7.5 7.5 0 1 0 15 0 a7.5 7.5 0 1 0 -15 0zM881.48 505.31 a7.5 7.5 0 1 0 15 0 a7.5 7.5 0 1 0 -15 0zM816.52 542.81 a7.5 7.5 0 1 0 15 0 a7.5 7.5 0 1 0 -15 0zM946.43 542.81 a7.5 7.5 0 1 0 15 0 a7.5 7.5 0 1 0 -15 0zM946.43 617.81 a7.5 7.5 0 1 0 15 0 a7.5 7.5 0 1 0 -15 0zM881.48 655.31 a7.5 7.5 0 1 0 15 0 a7.5 7.5 0 1 0 -15 0zM816.52 617.81 a7.5 7.5 0 1 0 15 0 a7.5 7.5 0 1 0 -15 0zM881.48 730.31 a7.5 7.5 0 1 0 15 0 a7.5 7.5 0 1 0 -15 0zM946.43 767.81 a7.5 7.5 0 1 0 15 0 a7.5 7.5 0 1 0 -15 0zM946.43 842.81 a7.5 7.5 0 1 0 15 0 a7.5 7.5 0 1 0 -15 0zM881.48 880.31 a7.5 7.5 0 1 0 15 0 a7.5 7.5 0 1 0 -15 0zM816.52 842.81 a7.5 7.5 0 1 0 15 0 a7.5 7.5 0 1 0 -15 0zM816.52 767.81 a7.5 7.5 0 1 0 15 0 a7.5 7.5 0 1 0 -15 0zM881.48 955.31 a7.5 7.5 0 1 0 15 0 a7.5 7.5 0 1 0 -15 0zM816.52 992.81 a7.5 7.5 0 1 0 15 0 a7.5 7.5 0 1 0 -15 0zM751.57 955.31 a7.5 7.5 0 1 0 15 0 a7.5 7.5 0 1 0 -15 0zM751.57 880.31 a7.5 7.5 0 1 0 15 0 a7.5 7.5 0 1 0 -15 0zM1011.39 730.31 a7.5 7.5 0 1 0 15 0 a7.5 7.5 0 1 0 -15 0zM1076.34 767.81 a7.5 7.5 0 1 0 15 0 a7.5 7.5 0 1 0 -15 0zM1076.34 842.81 a7.5 7.5 0 1 0 15 0 a7.5 7.5 0 1 0 -15 0zM1011.39 880.31 a7.5 7.5 0 1 0 15 0 a7.5 7.5 0 1 0 -15 0zM1141.29 55.31 a7.5 7.5 0 1 0 15 0 a7.5 7.5 0 1 0 -15 0zM1206.25 92.81 a7.5 7.5 0 1 0 15 0 a7.5 7.5 0 1 0 -15 0zM1206.25 167.81 a7.5 7.5 0 1 0 15 0 a7.5 7.5 0 1 0 -15 0zM1141.29 205.31 a7.5 7.5 0 1 0 15 0 a7.5 7.5 0 1 0 -15 0zM1076.34 167.81 a7.5 7.5 0 1 0 15 0 a7.5 7.5 0 1 0 -15 0zM1076.34 92.81 a7.5 7.5 0 1 0 15 0 a7.5 7.5 0 1 0 -15 0zM1141.29 280.31 a7.5 7.5 0 1 0 15 0 a7.5 7.5 0 1 0 -15 0zM1076.34 317.81 a7.5 7.5 0 1 0 15 0 a7.5 7.5 0 1 0 -15 0zM1011.39 280.31 a7.5 7.5 0 1 0 15 0 a7.5 7.5 0 1 0 -15 0zM1011.39 205.31 a7.5 7.5 0 1 0 15 0 a7.5 7.5 0 1 0 -15 0zM1141.29 730.31 a7.5 7.5 0 1 0 15 0 a7.5 7.5 0 1 0 -15 0zM1206.25 767.81 a7.5 7.5 0 1 0 15 0 a7.5 7.5 0 1 0 -15 0zM1206.25 842.81 a7.5 7.5 0 1 0 15 0 a7.5 7.5 0 1 0 -15 0zM1141.29 880.31 a7.5 7.5 0 1 0 15 0 a7.5 7.5 0 1 0 -15 0zM1141.29 955.31 a7.5 7.5 0 1 0 15 0 a7.5 7.5 0 1 0 -15 0zM1206.25 992.81 a7.5 7.5 0 1 0 15 0 a7.5 7.5 0 1 0 -15 0zM1206.25 1067.81 a7.5 7.5 0 1 0 15 0 a7.5 7.5 0 1 0 -15 0zM1141.29 1105.31 a7.5 7.5 0 1 0 15 0 a7.5 7.5 0 1 0 -15 0zM1076.34 1067.81 a7.5 7.5 0 1 0 15 0 a7.5 7.5 0 1 0 -15 0zM1076.34 992.81 a7.5 7.5 0 1 0 15 0 a7.5 7.5 0 1 0 -15 0zM1271.2 55.31 a7.5 7.5 0 1 0 15 0 a7.5 7.5 0 1 0 -15 0zM1336.15 92.81 a7.5 7.5 0 1 0 15 0 a7.5 7.5 0 1 0 -15 0zM1336.15 167.81 a7.5 7.5 0 1 0 15 0 a7.5 7.5 0 1 0 -15 0zM1271.2 205.31 a7.5 7.5 0 1 0 15 0 a7.5 7.5 0 1 0 -15 0zM1271.2 280.31 a7.5 7.5 0 1 0 15 0 a7.5 7.5 0 1 0 -15 0zM1206.25 317.81 a7.5 7.5 0 1 0 15 0 a7.5 7.5 0 1 0 -15 0zM1206.25 617.81 a7.5 7.5 0 1 0 15 0 a7.5 7.5 0 1 0 -15 0zM1271.2 655.31 a7.5 7.5 0 1 0 15 0 a7.5 7.5 0 1 0 -15 0zM1271.2 730.31 a7.5 7.5 0 1 0 15 0 a7.5 7.5 0 1 0 -15 0zM1141.29 655.31 a7.5 7.5 0 1 0 15 0 a7.5 7.5 0 1 0 -15 0zM1336.15 767.81 a7.5 7.5 0 1 0 15 0 a7.5 7.5 0 1 0 -15 0zM1336.15 842.81 a7.5 7.5 0 1 0 15 0 a7.5 7.5 0 1 0 -15 0zM1271.2 880.31 a7.5 7.5 0 1 0 15 0 a7.5 7.5 0 1 0 -15 0zM1271.2 1105.31 a7.5 7.5 0 1 0 15 0 a7.5 7.5 0 1 0 -15 0zM1271.2 1180.31 a7.5 7.5 0 1 0 15 0 a7.5 7.5 0 1 0 -15 0zM1206.25 1217.81 a7.5 7.5 0 1 0 15 0 a7.5 7.5 0 1 0 -15 0zM1141.29 1180.31 a7.5 7.5 0 1 0 15 0 a7.5 7.5 0 1 0 -15 0zM1336.15 -57.19 a7.5 7.5 0 1 0 15 0 a7.5 7.5 0 1 0 -15 0zM1401.11 -19.69 a7.5 7.5 0 1 0 15 0 a7.5 7.5 0 1 0 -15 0zM1401.11 55.31 a7.5 7.5 0 1 0 15 0 a7.5 7.5 0 1 0 -15 0zM1271.2 -19.69 a7.5 7.5 0 1 0 15 0 a7.5 7.5 0 1 0 -15 0zM1466.06 392.81 a7.5 7.5 0 1 0 15 0 a7.5 7.5 0 1 0 -15 0zM1531.02 430.31 a7.5 7.5 0 1 0 15 0 a7.5 7.5 0 1 0 -15 0zM1531.02 505.31 a7.5 7.5 0 1 0 15 0 a7.5 7.5 0 1 0 -15 0zM1466.06 542.81 a7.5 7.5 0 1 0 15 0 a7.5 7.5 0 1 0 -15 0zM1401.11 505.31 a7.5 7.5 0 1 0 15 0 a7.5 7.5 0 1 0 -15 0zM1401.11 430.31 a7.5 7.5 0 1 0 15 0 a7.5 7.5 0 1 0 -15 0zM1466.06 842.81 a7.5 7.5 0 1 0 15 0 a7.5 7.5 0 1 0 -15 0zM1531.02 880.31 a7.5 7.5 0 1 0 15 0 a7.5 7.5 0 1 0 -15 0zM1531.02 955.31 a7.5 7.5 0 1 0 15 0 a7.5 7.5 0 1 0 -15 0zM1466.06 992.81 a7.5 7.5 0 1 0 15 0 a7.5 7.5 0 1 0 -15 0zM1401.11 955.31 a7.5 7.5 0 1 0 15 0 a7.5 7.5 0 1 0 -15 0zM1401.11 880.31 a7.5 7.5 0 1 0 15 0 a7.5 7.5 0 1 0 -15 0zM1595.97 992.81 a7.5 7.5 0 1 0 15 0 a7.5 7.5 0 1 0 -15 0zM1595.97 1067.81 a7.5 7.5 0 1 0 15 0 a7.5 7.5 0 1 0 -15 0zM1531.02 1105.31 a7.5 7.5 0 1 0 15 0 a7.5 7.5 0 1 0 -15 0zM1466.06 1067.81 a7.5 7.5 0 1 0 15 0 a7.5 7.5 0 1 0 -15 0zM1595.97 -57.19 a7.5 7.5 0 1 0 15 0 a7.5 7.5 0 1 0 -15 0zM1660.92 -19.69 a7.5 7.5 0 1 0 15 0 a7.5 7.5 0 1 0 -15 0zM1660.92 55.31 a7.5 7.5 0 1 0 15 0 a7.5 7.5 0 1 0 -15 0zM1595.97 92.81 a7.5 7.5 0 1 0 15 0 a7.5 7.5 0 1 0 -15 0zM1531.02 55.31 a7.5 7.5 0 1 0 15 0 a7.5 7.5 0 1 0 -15 0zM1531.02 -19.69 a7.5 7.5 0 1 0 15 0 a7.5 7.5 0 1 0 -15 0zM1595.97 167.81 a7.5 7.5 0 1 0 15 0 a7.5 7.5 0 1 0 -15 0zM1660.92 205.31 a7.5 7.5 0 1 0 15 0 a7.5 7.5 0 1 0 -15 0zM1660.92 280.31 a7.5 7.5 0 1 0 15 0 a7.5 7.5 0 1 0 -15 0zM1595.97 317.81 a7.5 7.5 0 1 0 15 0 a7.5 7.5 0 1 0 -15 0zM1531.02 280.31 a7.5 7.5 0 1 0 15 0 a7.5 7.5 0 1 0 -15 0zM1531.02 205.31 a7.5 7.5 0 1 0 15 0 a7.5 7.5 0 1 0 -15 0zM1660.92 730.31 a7.5 7.5 0 1 0 15 0 a7.5 7.5 0 1 0 -15 0zM1725.88 767.81 a7.5 7.5 0 1 0 15 0 a7.5 7.5 0 1 0 -15 0zM1725.88 842.81 a7.5 7.5 0 1 0 15 0 a7.5 7.5 0 1 0 -15 0zM1660.92 880.31 a7.5 7.5 0 1 0 15 0 a7.5 7.5 0 1 0 -15 0zM1595.97 842.81 a7.5 7.5 0 1 0 15 0 a7.5 7.5 0 1 0 -15 0zM1595.97 767.81 a7.5 7.5 0 1 0 15 0 a7.5 7.5 0 1 0 -15 0zM1660.92 1105.31 a7.5 7.5 0 1 0 15 0 a7.5 7.5 0 1 0 -15 0zM1660.92 1180.31 a7.5 7.5 0 1 0 15 0 a7.5 7.5 0 1 0 -15 0zM1595.97 1217.81 a7.5 7.5 0 1 0 15 0 a7.5 7.5 0 1 0 -15 0zM1531.02 1180.31 a7.5 7.5 0 1 0 15 0 a7.5 7.5 0 1 0 -15 0zM1725.88 167.81 a7.5 7.5 0 1 0 15 0 a7.5 7.5 0 1 0 -15 0zM1790.83 205.31 a7.5 7.5 0 1 0 15 0 a7.5 7.5 0 1 0 -15 0zM1790.83 280.31 a7.5 7.5 0 1 0 15 0 a7.5 7.5 0 1 0 -15 0zM1725.88 317.81 a7.5 7.5 0 1 0 15 0 a7.5 7.5 0 1 0 -15 0zM1790.83 505.31 a7.5 7.5 0 1 0 15 0 a7.5 7.5 0 1 0 -15 0zM1855.78 542.81 a7.5 7.5 0 1 0 15 0 a7.5 7.5 0 1 0 -15 0zM1855.78 617.81 a7.5 7.5 0 1 0 15 0 a7.5 7.5 0 1 0 -15 0zM1790.83 655.31 a7.5 7.5 0 1 0 15 0 a7.5 7.5 0 1 0 -15 0zM1725.88 617.81 a7.5 7.5 0 1 0 15 0 a7.5 7.5 0 1 0 -15 0zM1725.88 542.81 a7.5 7.5 0 1 0 15 0 a7.5 7.5 0 1 0 -15 0zM1790.83 730.31 a7.5 7.5 0 1 0 15 0 a7.5 7.5 0 1 0 -15 0zM1855.78 767.81 a7.5 7.5 0 1 0 15 0 a7.5 7.5 0 1 0 -15 0zM1855.78 842.81 a7.5 7.5 0 1 0 15 0 a7.5 7.5 0 1 0 -15 0zM1790.83 880.31 a7.5 7.5 0 1 0 15 0 a7.5 7.5 0 1 0 -15 0zM1790.83 955.31 a7.5 7.5 0 1 0 15 0 a7.5 7.5 0 1 0 -15 0zM1725.88 992.81 a7.5 7.5 0 1 0 15 0 a7.5 7.5 0 1 0 -15 0zM1660.92 955.31 a7.5 7.5 0 1 0 15 0 a7.5 7.5 0 1 0 -15 0zM1855.78 992.81 a7.5 7.5 0 1 0 15 0 a7.5 7.5 0 1 0 -15 0zM1855.78 1067.81 a7.5 7.5 0 1 0 15 0 a7.5 7.5 0 1 0 -15 0zM1790.83 1105.31 a7.5 7.5 0 1 0 15 0 a7.5 7.5 0 1 0 -15 0zM1725.88 1067.81 a7.5 7.5 0 1 0 15 0 a7.5 7.5 0 1 0 -15 0zM1855.78 -57.19 a7.5 7.5 0 1 0 15 0 a7.5 7.5 0 1 0 -15 0zM1920.74 -19.69 a7.5 7.5 0 1 0 15 0 a7.5 7.5 0 1 0 -15 0zM1920.74 55.31 a7.5 7.5 0 1 0 15 0 a7.5 7.5 0 1 0 -15 0zM1855.78 92.81 a7.5 7.5 0 1 0 15 0 a7.5 7.5 0 1 0 -15 0zM1790.83 55.31 a7.5 7.5 0 1 0 15 0 a7.5 7.5 0 1 0 -15 0zM1790.83 -19.69 a7.5 7.5 0 1 0 15 0 a7.5 7.5 0 1 0 -15 0zM1985.69 92.81 a7.5 7.5 0 1 0 15 0 a7.5 7.5 0 1 0 -15 0zM1985.69 167.81 a7.5 7.5 0 1 0 15 0 a7.5 7.5 0 1 0 -15 0zM1920.74 205.31 a7.5 7.5 0 1 0 15 0 a7.5 7.5 0 1 0 -15 0zM1855.78 167.81 a7.5 7.5 0 1 0 15 0 a7.5 7.5 0 1 0 -15 0zM1920.74 280.31 a7.5 7.5 0 1 0 15 0 a7.5 7.5 0 1 0 -15 0zM1855.78 317.81 a7.5 7.5 0 1 0 15 0 a7.5 7.5 0 1 0 -15 0zM1920.74 1105.31 a7.5 7.5 0 1 0 15 0 a7.5 7.5 0 1 0 -15 0zM1920.74 1180.31 a7.5 7.5 0 1 0 15 0 a7.5 7.5 0 1 0 -15 0zM1855.78 1217.81 a7.5 7.5 0 1 0 15 0 a7.5 7.5 0 1 0 -15 0zM1790.83 1180.31 a7.5 7.5 0 1 0 15 0 a7.5 7.5 0 1 0 -15 0z" fill="url(&quot;#SvgjsRadialGradient1280&quot;)"></path><path d="M48.34 -17.65L91.64 7.35L91.64 57.35L48.34 82.35L5.04 57.35L5.04 7.35zM91.64 207.35L134.94 232.35L134.94 282.35L91.64 307.35L48.34 282.35L48.34 232.35zM91.64 507.35L134.94 532.35L134.94 582.35L91.64 607.35L48.34 582.35L48.34 532.35zM48.34 582.35L91.64 607.35L91.64 657.35L48.34 682.35L5.04 657.35L5.04 607.35zM48.34 1032.35L91.64 1057.35L91.64 1107.35L48.34 1132.35L5.04 1107.35L5.04 1057.35zM178.25 207.35L221.55 232.35L221.55 282.35L178.25 307.35L134.94 282.35L134.94 232.35zM178.25 357.35L221.55 382.35L221.55 432.35L178.25 457.35L134.94 432.35L134.94 382.35zM134.94 582.35L178.25 607.35L178.25 657.35L134.94 682.35L91.64 657.35L91.64 607.35zM134.94 882.35L178.25 907.35L178.25 957.35L134.94 982.35L91.64 957.35L91.64 907.35zM134.94 1032.35L178.25 1057.35L178.25 1107.35L134.94 1132.35L91.64 1107.35L91.64 1057.35zM264.85 57.35L308.15 82.35L308.15 132.35L264.85 157.35L221.55 132.35L221.55 82.35zM264.85 207.35L308.15 232.35L308.15 282.35L264.85 307.35L221.55 282.35L221.55 232.35zM221.55 282.35L264.85 307.35L264.85 357.35L221.55 382.35L178.25 357.35L178.25 307.35zM264.85 357.35L308.15 382.35L308.15 432.35L264.85 457.35L221.55 432.35L221.55 382.35zM221.55 432.35L264.85 457.35L264.85 507.35L221.55 532.35L178.25 507.35L178.25 457.35zM264.85 807.35L308.15 832.35L308.15 882.35L264.85 907.35L221.55 882.35L221.55 832.35zM221.55 1032.35L264.85 1057.35L264.85 1107.35L221.55 1132.35L178.25 1107.35L178.25 1057.35zM308.15 -17.65L351.46 7.35L351.46 57.35L308.15 82.35L264.85 57.35L264.85 7.35zM308.15 132.35L351.46 157.35L351.46 207.35L308.15 232.35L264.85 207.35L264.85 157.35zM351.46 207.35L394.76 232.35L394.76 282.35L351.46 307.35L308.15 282.35L308.15 232.35zM351.46 507.35L394.76 532.35L394.76 582.35L351.46 607.35L308.15 582.35L308.15 532.35zM308.15 582.35L351.46 607.35L351.46 657.35L308.15 682.35L264.85 657.35L264.85 607.35zM351.46 957.35L394.76 982.35L394.76 1032.35L351.46 1057.35L308.15 1032.35L308.15 982.35zM394.76 -17.65L438.06 7.35L438.06 57.35L394.76 82.35L351.46 57.35L351.46 7.35zM394.76 132.35L438.06 157.35L438.06 207.35L394.76 232.35L351.46 207.35L351.46 157.35zM438.06 207.35L481.37 232.35L481.37 282.35L438.06 307.35L394.76 282.35L394.76 232.35zM394.76 432.35L438.06 457.35L438.06 507.35L394.76 532.35L351.46 507.35L351.46 457.35zM438.06 507.35L481.37 532.35L481.37 582.35L438.06 607.35L394.76 582.35L394.76 532.35zM394.76 882.35L438.06 907.35L438.06 957.35L394.76 982.35L351.46 957.35L351.46 907.35zM481.37 -17.65L524.67 7.35L524.67 57.35L481.37 82.35L438.06 57.35L438.06 7.35zM524.67 57.35L567.97 82.35L567.97 132.35L524.67 157.35L481.37 132.35L481.37 82.35zM524.67 207.35L567.97 232.35L567.97 282.35L524.67 307.35L481.37 282.35L481.37 232.35zM524.67 357.35L567.97 382.35L567.97 432.35L524.67 457.35L481.37 432.35L481.37 382.35zM481.37 882.35L524.67 907.35L524.67 957.35L481.37 982.35L438.06 957.35L438.06 907.35zM524.67 957.35L567.97 982.35L567.97 1032.35L524.67 1057.35L481.37 1032.35L481.37 982.35zM481.37 1032.35L524.67 1057.35L524.67 1107.35L481.37 1132.35L438.06 1107.35L438.06 1057.35zM567.97 -17.65L611.27 7.35L611.27 57.35L567.97 82.35L524.67 57.35L524.67 7.35zM567.97 432.35L611.27 457.35L611.27 507.35L567.97 532.35L524.67 507.35L524.67 457.35zM567.97 882.35L611.27 907.35L611.27 957.35L567.97 982.35L524.67 957.35L524.67 907.35zM654.58 132.35L697.88 157.35L697.88 207.35L654.58 232.35L611.27 207.35L611.27 157.35zM654.58 282.35L697.88 307.35L697.88 357.35L654.58 382.35L611.27 357.35L611.27 307.35zM697.88 357.35L741.18 382.35L741.18 432.35L697.88 457.35L654.58 432.35L654.58 382.35zM697.88 507.35L741.18 532.35L741.18 582.35L697.88 607.35L654.58 582.35L654.58 532.35zM654.58 582.35L697.88 607.35L697.88 657.35L654.58 682.35L611.27 657.35L611.27 607.35zM697.88 957.35L741.18 982.35L741.18 1032.35L697.88 1057.35L654.58 1032.35L654.58 982.35zM654.58 1032.35L697.88 1057.35L697.88 1107.35L654.58 1132.35L611.27 1107.35L611.27 1057.35zM741.18 -17.65L784.48 7.35L784.48 57.35L741.18 82.35L697.88 57.35L697.88 7.35zM741.18 282.35L784.48 307.35L784.48 357.35L741.18 382.35L697.88 357.35L697.88 307.35zM784.48 507.35L827.79 532.35L827.79 582.35L784.48 607.35L741.18 582.35L741.18 532.35zM741.18 582.35L784.48 607.35L784.48 657.35L741.18 682.35L697.88 657.35L697.88 607.35zM784.48 657.35L827.79 682.35L827.79 732.35L784.48 757.35L741.18 732.35L741.18 682.35zM784.48 957.35L827.79 982.35L827.79 1032.35L784.48 1057.35L741.18 1032.35L741.18 982.35zM741.18 1032.35L784.48 1057.35L784.48 1107.35L741.18 1132.35L697.88 1107.35L697.88 1057.35zM871.09 207.35L914.39 232.35L914.39 282.35L871.09 307.35L827.79 282.35L827.79 232.35zM827.79 282.35L871.09 307.35L871.09 357.35L827.79 382.35L784.48 357.35L784.48 307.35zM827.79 582.35L871.09 607.35L871.09 657.35L827.79 682.35L784.48 657.35L784.48 607.35zM871.09 957.35L914.39 982.35L914.39 1032.35L871.09 1057.35L827.79 1032.35L827.79 982.35zM914.39 -17.65L957.69 7.35L957.69 57.35L914.39 82.35L871.09 57.35L871.09 7.35zM957.69 57.35L1001 82.35L1001 132.35L957.69 157.35L914.39 132.35L914.39 82.35zM957.69 207.35L1001 232.35L1001 282.35L957.69 307.35L914.39 282.35L914.39 232.35zM957.69 357.35L1001 382.35L1001 432.35L957.69 457.35L914.39 432.35L914.39 382.35zM914.39 732.35L957.69 757.35L957.69 807.35L914.39 832.35L871.09 807.35L871.09 757.35zM914.39 882.35L957.69 907.35L957.69 957.35L914.39 982.35L871.09 957.35L871.09 907.35zM1044.3 57.35L1087.6 82.35L1087.6 132.35L1044.3 157.35L1001 132.35L1001 82.35zM1001 432.35L1044.3 457.35L1044.3 507.35L1001 532.35L957.69 507.35L957.69 457.35zM1044.3 507.35L1087.6 532.35L1087.6 582.35L1044.3 607.35L1001 582.35L1001 532.35zM1044.3 657.35L1087.6 682.35L1087.6 732.35L1044.3 757.35L1001 732.35L1001 682.35zM1001 732.35L1044.3 757.35L1044.3 807.35L1001 832.35L957.69 807.35L957.69 757.35zM1044.3 957.35L1087.6 982.35L1087.6 1032.35L1044.3 1057.35L1001 1032.35L1001 982.35zM1130.9 207.35L1174.2 232.35L1174.2 282.35L1130.9 307.35L1087.6 282.35L1087.6 232.35zM1087.6 282.35L1130.9 307.35L1130.9 357.35L1087.6 382.35L1044.3 357.35L1044.3 307.35zM1087.6 432.35L1130.9 457.35L1130.9 507.35L1087.6 532.35L1044.3 507.35L1044.3 457.35zM1130.9 507.35L1174.2 532.35L1174.2 582.35L1130.9 607.35L1087.6 582.35L1087.6 532.35zM1087.6 732.35L1130.9 757.35L1130.9 807.35L1087.6 832.35L1044.3 807.35L1044.3 757.35zM1087.6 882.35L1130.9 907.35L1130.9 957.35L1087.6 982.35L1044.3 957.35L1044.3 907.35zM1087.6 1032.35L1130.9 1057.35L1130.9 1107.35L1087.6 1132.35L1044.3 1107.35L1044.3 1057.35zM1217.51 57.35L1260.81 82.35L1260.81 132.35L1217.51 157.35L1174.2 132.35L1174.2 82.35zM1174.2 132.35L1217.51 157.35L1217.51 207.35L1174.2 232.35L1130.9 207.35L1130.9 157.35zM1174.2 282.35L1217.51 307.35L1217.51 357.35L1174.2 382.35L1130.9 357.35L1130.9 307.35zM1217.51 657.35L1260.81 682.35L1260.81 732.35L1217.51 757.35L1174.2 732.35L1174.2 682.35zM1260.81 -17.65L1304.11 7.35L1304.11 57.35L1260.81 82.35L1217.51 57.35L1217.51 7.35zM1260.81 132.35L1304.11 157.35L1304.11 207.35L1260.81 232.35L1217.51 207.35L1217.51 157.35zM1304.11 207.35L1347.41 232.35L1347.41 282.35L1304.11 307.35L1260.81 282.35L1260.81 232.35zM1304.11 357.35L1347.41 382.35L1347.41 432.35L1304.11 457.35L1260.81 432.35L1260.81 382.35zM1260.81 432.35L1304.11 457.35L1304.11 507.35L1260.81 532.35L1217.51 507.35L1217.51 457.35zM1304.11 657.35L1347.41 682.35L1347.41 732.35L1304.11 757.35L1260.81 732.35L1260.81 682.35zM1260.81 732.35L1304.11 757.35L1304.11 807.35L1260.81 832.35L1217.51 807.35L1217.51 757.35zM1260.81 882.35L1304.11 907.35L1304.11 957.35L1260.81 982.35L1217.51 957.35L1217.51 907.35zM1304.11 957.35L1347.41 982.35L1347.41 1032.35L1304.11 1057.35L1260.81 1032.35L1260.81 982.35zM1347.41 -17.65L1390.72 7.35L1390.72 57.35L1347.41 82.35L1304.11 57.35L1304.11 7.35zM1390.72 57.35L1434.02 82.35L1434.02 132.35L1390.72 157.35L1347.41 132.35L1347.41 82.35zM1347.41 132.35L1390.72 157.35L1390.72 207.35L1347.41 232.35L1304.11 207.35L1304.11 157.35zM1347.41 282.35L1390.72 307.35L1390.72 357.35L1347.41 382.35L1304.11 357.35L1304.11 307.35zM1390.72 357.35L1434.02 382.35L1434.02 432.35L1390.72 457.35L1347.41 432.35L1347.41 382.35zM1390.72 507.35L1434.02 532.35L1434.02 582.35L1390.72 607.35L1347.41 582.35L1347.41 532.35zM1347.41 882.35L1390.72 907.35L1390.72 957.35L1347.41 982.35L1304.11 957.35L1304.11 907.35zM1347.41 1032.35L1390.72 1057.35L1390.72 1107.35L1347.41 1132.35L1304.11 1107.35L1304.11 1057.35zM1477.32 57.35L1520.63 82.35L1520.63 132.35L1477.32 157.35L1434.02 132.35L1434.02 82.35zM1434.02 432.35L1477.32 457.35L1477.32 507.35L1434.02 532.35L1390.72 507.35L1390.72 457.35zM1477.32 507.35L1520.63 532.35L1520.63 582.35L1477.32 607.35L1434.02 582.35L1434.02 532.35zM1477.32 807.35L1520.63 832.35L1520.63 882.35L1477.32 907.35L1434.02 882.35L1434.02 832.35zM1477.32 957.35L1520.63 982.35L1520.63 1032.35L1477.32 1057.35L1434.02 1032.35L1434.02 982.35zM1520.63 -17.65L1563.93 7.35L1563.93 57.35L1520.63 82.35L1477.32 57.35L1477.32 7.35zM1563.93 207.35L1607.23 232.35L1607.23 282.35L1563.93 307.35L1520.63 282.35L1520.63 232.35zM1520.63 282.35L1563.93 307.35L1563.93 357.35L1520.63 382.35L1477.32 357.35L1477.32 307.35zM1563.93 357.35L1607.23 382.35L1607.23 432.35L1563.93 457.35L1520.63 432.35L1520.63 382.35zM1607.23 -17.65L1650.53 7.35L1650.53 57.35L1607.23 82.35L1563.93 57.35L1563.93 7.35zM1650.53 57.35L1693.84 82.35L1693.84 132.35L1650.53 157.35L1607.23 132.35L1607.23 82.35zM1607.23 132.35L1650.53 157.35L1650.53 207.35L1607.23 232.35L1563.93 207.35L1563.93 157.35zM1650.53 207.35L1693.84 232.35L1693.84 282.35L1650.53 307.35L1607.23 282.35L1607.23 232.35zM1607.23 582.35L1650.53 607.35L1650.53 657.35L1607.23 682.35L1563.93 657.35L1563.93 607.35zM1607.23 732.35L1650.53 757.35L1650.53 807.35L1607.23 832.35L1563.93 807.35L1563.93 757.35zM1607.23 1032.35L1650.53 1057.35L1650.53 1107.35L1607.23 1132.35L1563.93 1107.35L1563.93 1057.35zM1737.14 57.35L1780.44 82.35L1780.44 132.35L1737.14 157.35L1693.84 132.35L1693.84 82.35zM1693.84 282.35L1737.14 307.35L1737.14 357.35L1693.84 382.35L1650.53 357.35L1650.53 307.35zM1737.14 357.35L1780.44 382.35L1780.44 432.35L1737.14 457.35L1693.84 432.35L1693.84 382.35zM1693.84 432.35L1737.14 457.35L1737.14 507.35L1693.84 532.35L1650.53 507.35L1650.53 457.35zM1693.84 732.35L1737.14 757.35L1737.14 807.35L1693.84 832.35L1650.53 807.35L1650.53 757.35zM1737.14 957.35L1780.44 982.35L1780.44 1032.35L1737.14 1057.35L1693.84 1032.35L1693.84 982.35zM1780.44 -17.65L1823.74 7.35L1823.74 57.35L1780.44 82.35L1737.14 57.35L1737.14 7.35zM1823.74 57.35L1867.05 82.35L1867.05 132.35L1823.74 157.35L1780.44 132.35L1780.44 82.35zM1823.74 207.35L1867.05 232.35L1867.05 282.35L1823.74 307.35L1780.44 282.35L1780.44 232.35zM1780.44 582.35L1823.74 607.35L1823.74 657.35L1780.44 682.35L1737.14 657.35L1737.14 607.35zM1823.74 657.35L1867.05 682.35L1867.05 732.35L1823.74 757.35L1780.44 732.35L1780.44 682.35zM1780.44 732.35L1823.74 757.35L1823.74 807.35L1780.44 832.35L1737.14 807.35L1737.14 757.35zM1780.44 1032.35L1823.74 1057.35L1823.74 1107.35L1780.44 1132.35L1737.14 1107.35L1737.14 1057.35zM1867.05 432.35L1910.35 457.35L1910.35 507.35L1867.05 532.35L1823.74 507.35L1823.74 457.35zM1867.05 732.35L1910.35 757.35L1910.35 807.35L1867.05 832.35L1823.74 807.35L1823.74 757.35zM1867.05 1032.35L1910.35 1057.35L1910.35 1107.35L1867.05 1132.35L1823.74 1107.35L1823.74 1057.35zM1953.65 -17.65L1996.95 7.35L1996.95 57.35L1953.65 82.35L1910.35 57.35L1910.35 7.35zM1996.95 57.35L2040.26 82.35L2040.26 132.35L1996.95 157.35L1953.65 132.35L1953.65 82.35zM1953.65 432.35L1996.95 457.35L1996.95 507.35L1953.65 532.35L1910.35 507.35L1910.35 457.35z" stroke="rgba(6, 80, 156, 0.93)" stroke-width="2"></path></g><defs><mask id="SvgjsMask1279"><rect width="1920" height="1080" fill="#ffffff"></rect></mask><radialGradient cx="1920" cy="1080" r="2202.91" gradientUnits="userSpaceOnUse" id="SvgjsRadialGradient1280"><stop stop-color="rgba(158, 140, 0, 1)" offset="0"></stop><stop stop-color="#03305d" offset="1"></stop></radialGradient></defs></svg>