<svg width="430" height="165" viewBox="0 0 430 165" fill="none" xmlns="http://www.w3.org/2000/svg">
<path d="M101.79 86.749V11.5C101.957 8 104.285 1 112.269 1C120.252 1 122.581 7.86688 122.747 11.3003L122.248 89.5C121.749 95 119.354 104.1 111.77 112.5C104.185 120.9 94.9713 124.167 91.3122 125C85.8236 126 79.8361 126.5 72.8506 125.5C63.3703 123 58.6464 120.807 50.3973 113C41.416 104.5 39.4201 97 38.9212 87V72C38.9212 68.5 41.9149 63 48.9004 62.5C55.8681 62.0013 59.8776 67.5 59.8776 72V86.5C60.2102 92.7503 65.2664 105.4 80.834 105C96.4016 104.6 101.291 92.666 101.79 86.749Z" fill="#FF004D"/>
<path d="M129.233 116C135.62 106.4 137.549 94.6667 137.716 90C137.716 86.5 139.786 83.1172 142.206 81.5C143.703 80.5 147.695 79 152.186 80.5C155.865 81.7291 158.173 85 158.672 88C159.171 91 159.171 95 158.173 99.5C157.175 104 156.177 108 156.177 108C155.192 111.379 153.184 116.5 153.184 116.5C152.019 119.167 144.202 133 139.712 138C131.728 146.889 122.248 152.5 116.759 155.5C107.944 160.318 102.289 161.5 93.807 163C87.3205 164 84.8257 164 76.3433 164C67.861 164 61.5952 163.13 54.888 160.5C46.4056 157.174 38.4222 153.5 30.9378 147.5C24.0945 142.014 17.9647 135 14.9709 130.5C11.4782 125.5 7.67323 117.687 5.49065 112C2.99583 105.5 1.83159 99 1.49895 96C1.16632 93 0.999977 90.1969 0.999985 89C1 86.5 2.74619 84.2502 4.49272 82.5C7.12987 79.8574 12.1502 78.242 16.9668 81C21.7834 83.758 22.4282 86.7818 22.9543 91C23.4805 95.2182 24.4512 100.2 28.4429 111C32.4346 121.8 42.7465 130.167 47.4035 133C52.7258 136.5 66.6635 143.5 79.8361 143.5C93.0087 143.5 103.953 138.5 107.778 136C112.269 133.333 122.847 125.6 129.233 116Z" fill="#FF004D"/>
<path d="M101.79 86.749V11.5C101.957 8 104.285 1 112.269 1C120.252 1 122.581 7.86688 122.747 11.3003L122.248 89.5C121.749 95 119.354 104.1 111.77 112.5C104.185 120.9 94.9713 124.167 91.3122 125C85.8236 126 79.8361 126.5 72.8506 125.5C63.3703 123 58.6464 120.807 50.3973 113C41.416 104.5 39.4201 97 38.9212 87V72C38.9212 68.5 41.9149 63 48.9004 62.5C55.8681 62.0013 59.8776 67.5 59.8776 72V86.5C60.2102 92.7503 65.2664 105.4 80.834 105C96.4016 104.6 101.291 92.666 101.79 86.749Z" stroke="#FF004D" stroke-width="2"/>
<path d="M129.233 116C135.62 106.4 137.549 94.6667 137.716 90C137.716 86.5 139.786 83.1172 142.206 81.5C143.703 80.5 147.695 79 152.186 80.5C155.865 81.7291 158.173 85 158.672 88C159.171 91 159.171 95 158.173 99.5C157.175 104 156.177 108 156.177 108C155.192 111.379 153.184 116.5 153.184 116.5C152.019 119.167 144.202 133 139.712 138C131.728 146.889 122.248 152.5 116.759 155.5C107.944 160.318 102.289 161.5 93.807 163C87.3205 164 84.8257 164 76.3433 164C67.861 164 61.5952 163.13 54.888 160.5C46.4056 157.174 38.4222 153.5 30.9378 147.5C24.0945 142.014 17.9647 135 14.9709 130.5C11.4782 125.5 7.67323 117.687 5.49065 112C2.99583 105.5 1.83159 99 1.49895 96C1.16632 93 0.999977 90.1969 0.999985 89C1 86.5 2.74619 84.2502 4.49272 82.5C7.12987 79.8574 12.1502 78.242 16.9668 81C21.7834 83.758 22.4282 86.7818 22.9543 91C23.4805 95.2182 24.4512 100.2 28.4429 111C32.4346 121.8 42.7465 130.167 47.4035 133C52.7258 136.5 66.6635 143.5 79.8361 143.5C93.0087 143.5 103.953 138.5 107.778 136C112.269 133.333 122.847 125.6 129.233 116Z" stroke="#FF004D" stroke-width="2"/>
<circle cx="49.5" cy="20.5" r="19" fill="#FF004D" stroke="#FF004D"/>
<path d="M213.011 31.0909H220.307V55.4318C220.307 57.6818 219.801 59.6364 218.79 61.2955C217.79 62.9545 216.398 64.233 214.614 65.1307C212.83 66.0284 210.756 66.4773 208.392 66.4773C206.29 66.4773 204.381 66.108 202.665 65.3693C200.96 64.6193 199.608 63.483 198.608 61.9602C197.608 60.4261 197.114 58.5 197.125 56.1818H204.472C204.494 57.1023 204.682 57.892 205.034 58.5511C205.398 59.1989 205.892 59.6989 206.517 60.0511C207.153 60.392 207.903 60.5625 208.767 60.5625C209.676 60.5625 210.443 60.3693 211.068 59.983C211.705 59.5852 212.188 59.0057 212.517 58.2443C212.847 57.483 213.011 56.5455 213.011 55.4318V31.0909ZM238.205 66.5114C235.511 66.5114 233.193 65.9659 231.25 64.875C229.318 63.7727 227.83 62.2159 226.784 60.2045C225.739 58.1818 225.216 55.7898 225.216 53.0284C225.216 50.3352 225.739 47.9716 226.784 45.9375C227.83 43.9034 229.301 42.3182 231.199 41.1818C233.108 40.0455 235.347 39.4773 237.915 39.4773C239.642 39.4773 241.25 39.7557 242.739 40.3125C244.239 40.858 245.545 41.6818 246.659 42.7841C247.784 43.8864 248.659 45.2727 249.284 46.9432C249.909 48.6023 250.222 50.5455 250.222 52.7727V54.767H228.114V50.267H243.386C243.386 49.2216 243.159 48.2955 242.705 47.4886C242.25 46.6818 241.619 46.0511 240.812 45.5966C240.017 45.1307 239.091 44.8977 238.034 44.8977C236.932 44.8977 235.955 45.1534 235.102 45.6648C234.261 46.1648 233.602 46.8409 233.125 47.6932C232.648 48.5341 232.403 49.4716 232.392 50.5057V54.7841C232.392 56.0795 232.631 57.1989 233.108 58.142C233.597 59.0852 234.284 59.8125 235.17 60.3239C236.057 60.8352 237.108 61.0909 238.324 61.0909C239.131 61.0909 239.869 60.9773 240.54 60.75C241.21 60.5227 241.784 60.1818 242.261 59.7273C242.739 59.2727 243.102 58.7159 243.352 58.0568L250.068 58.5C249.727 60.1136 249.028 61.5227 247.972 62.7273C246.926 63.9205 245.574 64.8523 243.915 65.5227C242.267 66.1818 240.364 66.5114 238.205 66.5114ZM268.886 39.8182V45.2727H253.119V39.8182H268.886ZM256.699 33.5455H263.96V57.9545C263.96 58.625 264.063 59.1477 264.267 59.5227C264.472 59.8864 264.756 60.142 265.119 60.2898C265.494 60.4375 265.926 60.5114 266.415 60.5114C266.756 60.5114 267.097 60.483 267.438 60.4261C267.778 60.358 268.04 60.3068 268.222 60.2727L269.364 65.6761C269 65.7898 268.489 65.9205 267.83 66.0682C267.17 66.2273 266.369 66.3239 265.426 66.358C263.676 66.4261 262.142 66.1932 260.824 65.6591C259.517 65.125 258.5 64.2955 257.773 63.1705C257.045 62.0455 256.688 60.625 256.699 58.9091V33.5455ZM281.44 50.8636V66H274.179V31.0909H281.236V44.4375H281.543C282.134 42.892 283.088 41.6818 284.406 40.8068C285.724 39.9205 287.378 39.4773 289.366 39.4773C291.185 39.4773 292.77 39.875 294.122 40.6705C295.486 41.4545 296.543 42.5852 297.293 44.0625C298.054 45.5284 298.429 47.2841 298.418 49.3295V66H291.156V50.625C291.168 49.0114 290.759 47.7557 289.929 46.858C289.111 45.9602 287.963 45.5114 286.486 45.5114C285.497 45.5114 284.622 45.7216 283.861 46.142C283.111 46.5625 282.52 47.1761 282.088 47.983C281.668 48.7784 281.452 49.7386 281.44 50.8636ZM304.132 66V39.8182H311.393V66H304.132ZM307.78 36.4432C306.7 36.4432 305.774 36.0852 305.001 35.3693C304.24 34.642 303.859 33.7727 303.859 32.7614C303.859 31.7614 304.24 30.9034 305.001 30.1875C305.774 29.4602 306.7 29.0966 307.78 29.0966C308.859 29.0966 309.78 29.4602 310.541 30.1875C311.314 30.9034 311.7 31.7614 311.7 32.7614C311.7 33.7727 311.314 34.642 310.541 35.3693C309.78 36.0852 308.859 36.4432 307.78 36.4432ZM316.017 37.1761V31.0909H344.688V37.1761H334V66H326.705V37.1761H316.017ZM357.408 66.5114C354.714 66.5114 352.396 65.9659 350.453 64.875C348.521 63.7727 347.033 62.2159 345.987 60.2045C344.942 58.1818 344.419 55.7898 344.419 53.0284C344.419 50.3352 344.942 47.9716 345.987 45.9375C347.033 43.9034 348.504 42.3182 350.402 41.1818C352.311 40.0455 354.55 39.4773 357.118 39.4773C358.845 39.4773 360.453 39.7557 361.942 40.3125C363.442 40.858 364.749 41.6818 365.862 42.7841C366.987 43.8864 367.862 45.2727 368.487 46.9432C369.112 48.6023 369.425 50.5455 369.425 52.7727V54.767H347.317V50.267H362.589C362.589 49.2216 362.362 48.2955 361.908 47.4886C361.453 46.6818 360.822 46.0511 360.016 45.5966C359.22 45.1307 358.294 44.8977 357.237 44.8977C356.135 44.8977 355.158 45.1534 354.305 45.6648C353.464 46.1648 352.805 46.8409 352.328 47.6932C351.851 48.5341 351.607 49.4716 351.595 50.5057V54.7841C351.595 56.0795 351.834 57.1989 352.311 58.142C352.8 59.0852 353.487 59.8125 354.374 60.3239C355.26 60.8352 356.311 61.0909 357.527 61.0909C358.334 61.0909 359.072 60.9773 359.743 60.75C360.413 60.5227 360.987 60.1818 361.464 59.7273C361.942 59.2727 362.305 58.7159 362.555 58.0568L369.271 58.5C368.93 60.1136 368.232 61.5227 367.175 62.7273C366.129 63.9205 364.777 64.8523 363.118 65.5227C361.47 66.1818 359.567 66.5114 357.408 66.5114ZM385.993 66.5114C383.311 66.5114 381.004 65.9432 379.072 64.8068C377.152 63.6591 375.675 62.0682 374.641 60.0341C373.618 58 373.107 55.6591 373.107 53.0114C373.107 50.3295 373.624 47.9773 374.658 45.9545C375.703 43.9205 377.186 42.3352 379.107 41.1989C381.027 40.0511 383.311 39.4773 385.959 39.4773C388.243 39.4773 390.243 39.892 391.959 40.7216C393.675 41.5511 395.033 42.7159 396.033 44.2159C397.033 45.7159 397.584 47.4773 397.686 49.5H390.834C390.641 48.1932 390.129 47.142 389.3 46.3466C388.482 45.5398 387.408 45.1364 386.078 45.1364C384.953 45.1364 383.97 45.4432 383.129 46.0568C382.3 46.6591 381.652 47.5398 381.186 48.6989C380.72 49.858 380.487 51.2614 380.487 52.9091C380.487 54.5795 380.714 56 381.169 57.1705C381.635 58.3409 382.288 59.233 383.129 59.8466C383.97 60.4602 384.953 60.767 386.078 60.767C386.908 60.767 387.652 60.5966 388.311 60.2557C388.982 59.9148 389.533 59.4205 389.964 58.7727C390.408 58.1136 390.697 57.3239 390.834 56.4034H397.686C397.572 58.4034 397.027 60.1648 396.05 61.6875C395.084 63.1989 393.749 64.3807 392.044 65.233C390.339 66.0852 388.322 66.5114 385.993 66.5114ZM409.597 50.8636V66H402.335V31.0909H409.392V44.4375H409.699C410.29 42.892 411.244 41.6818 412.562 40.8068C413.881 39.9205 415.534 39.4773 417.523 39.4773C419.341 39.4773 420.926 39.875 422.278 40.6705C423.642 41.4545 424.699 42.5852 425.449 44.0625C426.21 45.5284 426.585 47.2841 426.574 49.3295V66H419.312V50.625C419.324 49.0114 418.915 47.7557 418.085 46.858C417.267 45.9602 416.119 45.5114 414.642 45.5114C413.653 45.5114 412.778 45.7216 412.017 46.142C411.267 46.5625 410.676 47.1761 410.244 47.983C409.824 48.7784 409.608 49.7386 409.597 50.8636Z" fill="white"/>
<path d="M215.432 92.1818C215.261 90.7424 214.57 89.625 213.358 88.8295C212.146 88.0341 210.659 87.6364 208.898 87.6364C207.61 87.6364 206.483 87.8447 205.517 88.2614C204.561 88.678 203.813 89.2509 203.273 89.9801C202.742 90.7093 202.477 91.5379 202.477 92.4659C202.477 93.2424 202.662 93.91 203.031 94.4688C203.41 95.018 203.893 95.4773 204.48 95.8466C205.067 96.2064 205.683 96.5047 206.327 96.7415C206.971 96.9687 207.562 97.1534 208.102 97.2955L211.057 98.0909C211.814 98.2898 212.657 98.5644 213.585 98.9148C214.523 99.2652 215.418 99.7434 216.27 100.349C217.132 100.946 217.842 101.713 218.401 102.651C218.959 103.588 219.239 104.739 219.239 106.102C219.239 107.674 218.827 109.095 218.003 110.364C217.188 111.633 215.995 112.641 214.423 113.389C212.861 114.137 210.962 114.511 208.727 114.511C206.644 114.511 204.84 114.175 203.315 113.503C201.8 112.83 200.607 111.893 199.736 110.69C198.874 109.488 198.386 108.091 198.273 106.5H201.909C202.004 107.598 202.373 108.508 203.017 109.227C203.67 109.937 204.494 110.468 205.489 110.818C206.492 111.159 207.572 111.33 208.727 111.33C210.072 111.33 211.279 111.112 212.349 110.676C213.42 110.231 214.267 109.616 214.892 108.83C215.517 108.034 215.83 107.106 215.83 106.045C215.83 105.08 215.56 104.294 215.02 103.688C214.48 103.081 213.77 102.589 212.889 102.21C212.009 101.831 211.057 101.5 210.034 101.216L206.455 100.193C204.182 99.5398 202.383 98.607 201.057 97.3949C199.731 96.1828 199.068 94.5966 199.068 92.6364C199.068 91.0076 199.509 89.5871 200.389 88.375C201.279 87.1534 202.473 86.2064 203.969 85.5341C205.474 84.8523 207.155 84.5114 209.011 84.5114C210.886 84.5114 212.553 84.8475 214.011 85.5199C215.47 86.1828 216.625 87.0919 217.477 88.2472C218.339 89.4025 218.794 90.714 218.841 92.1818H215.432ZM241.04 114.455C239.07 114.455 237.342 113.986 235.855 113.048C234.378 112.111 233.222 110.799 232.389 109.114C231.565 107.428 231.153 105.458 231.153 103.205C231.153 100.932 231.565 98.9479 232.389 97.2528C233.222 95.5578 234.378 94.2415 235.855 93.304C237.342 92.3665 239.07 91.8977 241.04 91.8977C243.009 91.8977 244.733 92.3665 246.21 93.304C247.697 94.2415 248.852 95.5578 249.676 97.2528C250.509 98.9479 250.926 100.932 250.926 103.205C250.926 105.458 250.509 107.428 249.676 109.114C248.852 110.799 247.697 112.111 246.21 113.048C244.733 113.986 243.009 114.455 241.04 114.455ZM241.04 111.443C242.536 111.443 243.767 111.06 244.733 110.293C245.699 109.526 246.414 108.517 246.878 107.267C247.342 106.017 247.574 104.663 247.574 103.205C247.574 101.746 247.342 100.387 246.878 99.1278C246.414 97.8684 245.699 96.8504 244.733 96.0739C243.767 95.2973 242.536 94.9091 241.04 94.9091C239.543 94.9091 238.312 95.2973 237.346 96.0739C236.381 96.8504 235.666 97.8684 235.202 99.1278C234.738 100.387 234.506 101.746 234.506 103.205C234.506 104.663 234.738 106.017 235.202 107.267C235.666 108.517 236.381 109.526 237.346 110.293C238.312 111.06 239.543 111.443 241.04 111.443ZM266.995 84.9091V114H263.643V84.9091H266.995ZM294.485 105.08V92.1818H297.838V114H294.485V110.307H294.258C293.747 111.415 292.951 112.357 291.872 113.134C290.792 113.901 289.429 114.284 287.781 114.284C286.417 114.284 285.205 113.986 284.144 113.389C283.084 112.783 282.251 111.874 281.644 110.662C281.038 109.44 280.735 107.902 280.735 106.045V92.1818H284.088V105.818C284.088 107.409 284.533 108.678 285.423 109.625C286.322 110.572 287.468 111.045 288.86 111.045C289.694 111.045 290.541 110.832 291.403 110.406C292.274 109.98 293.003 109.327 293.59 108.446C294.187 107.565 294.485 106.443 294.485 105.08ZM321.066 92.1818V95.0227H309.759V92.1818H321.066ZM313.055 86.9545H316.407V107.75C316.407 108.697 316.544 109.407 316.819 109.881C317.103 110.345 317.463 110.657 317.899 110.818C318.344 110.97 318.812 111.045 319.305 111.045C319.674 111.045 319.977 111.027 320.214 110.989C320.451 110.941 320.64 110.903 320.782 110.875L321.464 113.886C321.237 113.972 320.919 114.057 320.512 114.142C320.105 114.237 319.589 114.284 318.964 114.284C318.017 114.284 317.089 114.08 316.18 113.673C315.28 113.266 314.532 112.646 313.936 111.812C313.348 110.979 313.055 109.928 313.055 108.659V86.9545ZM333.709 114V92.1818H337.061V114H333.709ZM335.413 88.5455C334.76 88.5455 334.196 88.3229 333.723 87.8778C333.259 87.4328 333.027 86.8977 333.027 86.2727C333.027 85.6477 333.259 85.1127 333.723 84.6676C334.196 84.2225 334.76 84 335.413 84C336.067 84 336.625 84.2225 337.089 84.6676C337.563 85.1127 337.8 85.6477 337.8 86.2727C337.8 86.8977 337.563 87.4328 337.089 87.8778C336.625 88.3229 336.067 88.5455 335.413 88.5455ZM359.665 114.455C357.695 114.455 355.967 113.986 354.48 113.048C353.003 112.111 351.847 110.799 351.014 109.114C350.19 107.428 349.778 105.458 349.778 103.205C349.778 100.932 350.19 98.9479 351.014 97.2528C351.847 95.5578 353.003 94.2415 354.48 93.304C355.967 92.3665 357.695 91.8977 359.665 91.8977C361.634 91.8977 363.358 92.3665 364.835 93.304C366.322 94.2415 367.477 95.5578 368.301 97.2528C369.134 98.9479 369.551 100.932 369.551 103.205C369.551 105.458 369.134 107.428 368.301 109.114C367.477 110.799 366.322 112.111 364.835 113.048C363.358 113.986 361.634 114.455 359.665 114.455ZM359.665 111.443C361.161 111.443 362.392 111.06 363.358 110.293C364.324 109.526 365.039 108.517 365.503 107.267C365.967 106.017 366.199 104.663 366.199 103.205C366.199 101.746 365.967 100.387 365.503 99.1278C365.039 97.8684 364.324 96.8504 363.358 96.0739C362.392 95.2973 361.161 94.9091 359.665 94.9091C358.168 94.9091 356.937 95.2973 355.971 96.0739C355.006 96.8504 354.291 97.8684 353.827 99.1278C353.363 100.387 353.131 101.746 353.131 103.205C353.131 104.663 353.363 106.017 353.827 107.267C354.291 108.517 355.006 109.526 355.971 110.293C356.937 111.06 358.168 111.443 359.665 111.443ZM385.62 100.875V114H382.268V92.1818H385.507V95.5909H385.791C386.302 94.483 387.079 93.5928 388.12 92.9205C389.162 92.2386 390.507 91.8977 392.155 91.8977C393.632 91.8977 394.924 92.2008 396.032 92.8068C397.14 93.4034 398.002 94.3125 398.618 95.5341C399.233 96.7462 399.541 98.2803 399.541 100.136V114H396.189V100.364C396.189 98.6496 395.744 97.3144 394.853 96.358C393.963 95.392 392.742 94.9091 391.189 94.9091C390.119 94.9091 389.162 95.1411 388.319 95.6051C387.486 96.0691 386.828 96.7462 386.345 97.6364C385.862 98.5265 385.62 99.6061 385.62 100.875ZM428.721 97.0682L425.71 97.9205C425.52 97.4186 425.241 96.9309 424.872 96.4574C424.512 95.9744 424.019 95.5767 423.394 95.2642C422.769 94.9517 421.969 94.7955 420.994 94.7955C419.659 94.7955 418.546 95.1032 417.656 95.7188C416.775 96.3248 416.335 97.0966 416.335 98.0341C416.335 98.8674 416.638 99.5256 417.244 100.009C417.85 100.491 418.797 100.894 420.085 101.216L423.323 102.011C425.274 102.485 426.728 103.209 427.684 104.185C428.641 105.151 429.119 106.396 429.119 107.92C429.119 109.17 428.759 110.288 428.039 111.273C427.329 112.258 426.335 113.034 425.056 113.602C423.778 114.17 422.291 114.455 420.596 114.455C418.371 114.455 416.529 113.972 415.071 113.006C413.612 112.04 412.689 110.629 412.301 108.773L415.483 107.977C415.786 109.152 416.358 110.032 417.201 110.619C418.054 111.206 419.166 111.5 420.539 111.5C422.102 111.5 423.342 111.169 424.261 110.506C425.189 109.833 425.653 109.028 425.653 108.091C425.653 107.333 425.388 106.699 424.858 106.188C424.327 105.667 423.513 105.278 422.414 105.023L418.778 104.17C416.78 103.697 415.312 102.963 414.375 101.969C413.447 100.965 412.983 99.7102 412.983 98.2045C412.983 96.9735 413.328 95.8845 414.019 94.9375C414.72 93.9905 415.672 93.2472 416.875 92.7074C418.087 92.1676 419.46 91.8977 420.994 91.8977C423.153 91.8977 424.848 92.3712 426.079 93.3182C427.32 94.2652 428.2 95.5152 428.721 97.0682Z" fill="white" fill-opacity="0.8"/>
</svg>
