<svg width="200" height="200" viewBox="0 0 200 200" fill="none" xmlns="http://www.w3.org/2000/svg">
<rect width="200" height="200" fill="#F5F5F5"/>
<rect width="200" height="200" fill="url(#paint0_radial_0_1)"/>
<path d="M36.0938 108.438V120.156L2.14844 106.016V97.5L11.8359 100.195L36.0938 108.438ZM11.8359 101.953L2.14844 104.531V96.0156L36.0938 81.8359V93.5156L11.8359 101.953ZM137.422 129.883H128.516L148.867 68.125H157.773L137.422 129.883ZM163.203 93.5547V81.9141L197.383 96.0156V104.57L187.578 101.758L163.203 93.5547ZM187.578 100.078L197.383 97.5V106.016L163.203 120.195V108.516L187.578 100.078Z" fill="#5B5B5B"/>
<path d="M57.2656 125H45.0391V64.9609H57.2656V125ZM65.7422 104.062L55.7422 114.023L51.0938 105.469L59.0625 95.0781L69.2969 82.7344H83.9453L65.7422 104.062ZM59.3359 105.781L67.9688 98.75L85.1562 125H71.1328L59.3359 105.781ZM100.547 65V114.844L99.2969 125H88.3203V65H100.547ZM126.914 104.219C126.914 108.438 126.315 112.174 125.117 115.43C123.945 118.685 122.135 121.224 119.688 123.047C117.266 124.87 114.193 125.781 110.469 125.781C107.031 125.781 104.206 124.831 101.992 122.93C99.8047 121.003 98.099 118.411 96.875 115.156C95.6771 111.901 94.8177 108.242 94.2969 104.18V103.477C94.8177 99.4401 95.6771 95.8073 96.875 92.5781C98.099 89.3229 99.8047 86.7448 101.992 84.8438C104.18 82.9167 106.979 81.9531 110.391 81.9531C114.141 81.9531 117.24 82.8776 119.688 84.7266C122.135 86.5755 123.945 89.1146 125.117 92.3438C126.315 95.5729 126.914 99.2578 126.914 103.398V104.219ZM114.727 103.398C114.727 101.315 114.518 99.401 114.102 97.6562C113.711 95.8854 112.982 94.4792 111.914 93.4375C110.872 92.3698 109.349 91.8359 107.344 91.8359C105.885 91.8359 104.648 92.0703 103.633 92.5391C102.643 92.9818 101.823 93.6458 101.172 94.5312C100.547 95.4167 100.078 96.4974 99.7656 97.7734C99.4792 99.0495 99.3229 100.469 99.2969 102.031V105.625C99.3229 107.734 99.5964 109.57 100.117 111.133C100.664 112.669 101.523 113.854 102.695 114.688C103.893 115.521 105.469 115.938 107.422 115.938C109.427 115.938 110.951 115.443 111.992 114.453C113.034 113.464 113.75 112.083 114.141 110.312C114.531 108.542 114.727 106.51 114.727 104.219V103.398Z" fill="url(#paint1_linear_0_1)"/>
<defs>
<radialGradient id="paint0_radial_0_1" cx="0" cy="0" r="1" gradientUnits="userSpaceOnUse" gradientTransform="translate(100 100) rotate(90) scale(100)">
<stop stop-color="white" stop-opacity="0"/>
<stop offset="1" stop-color="#FFF7B1"/>
</radialGradient>
<linearGradient id="paint1_linear_0_1" x1="100" y1="41" x2="100" y2="137" gradientUnits="userSpaceOnUse">
<stop stop-color="#FFA800" stop-opacity="0.75"/>
<stop offset="1" stop-color="#FF9900" stop-opacity="0.87"/>
</linearGradient>
</defs>
</svg>
