<svg xmlns="http://www.w3.org/2000/svg" version="1.1" xmlns:xlink="http://www.w3.org/1999/xlink" xmlns:svgjs="http://svgjs.dev/svgjs" width="1440" height="250" preserveAspectRatio="none" viewBox="0 0 1440 250"><g mask="url(&quot;#SvgjsMask1012&quot;)" fill="none"><rect width="1440" height="250" x="0" y="0" fill="rgba(255, 255, 255, 1)"></rect><path d="M14 250L264 0L586.5 0L336.5 250z" fill="url(&quot;#SvgjsLinearGradient1013&quot;)"></path><path d="M274.6 250L524.6 0L733.1 0L483.1 250z" fill="url(&quot;#SvgjsLinearGradient1013&quot;)"></path><path d="M496.20000000000005 250L746.2 0L942.7 0L692.7 250z" fill="url(&quot;#SvgjsLinearGradient1013&quot;)"></path><path d="M723.8000000000001 250L973.8000000000001 0L1321.8000000000002 0L1071.8000000000002 250z" fill="url(&quot;#SvgjsLinearGradient1013&quot;)"></path><path d="M1407 250L1157 0L936.5 0L1186.5 250z" fill="url(&quot;#SvgjsLinearGradient1014&quot;)"></path><path d="M1178.4 250L928.4000000000001 0L665.9000000000001 0L915.9000000000001 250z" fill="url(&quot;#SvgjsLinearGradient1014&quot;)"></path><path d="M961.8 250L711.8 0L434.29999999999995 0L684.3 250z" fill="url(&quot;#SvgjsLinearGradient1014&quot;)"></path><path d="M709.1999999999999 250L459.19999999999993 0L270.19999999999993 0L520.1999999999999 250z" fill="url(&quot;#SvgjsLinearGradient1014&quot;)"></path><path d="M1247.5442062857908 250L1440 57.544206285790835L1440 250z" fill="url(&quot;#SvgjsLinearGradient1013&quot;)"></path><path d="M0 250L192.45579371420916 250L 0 57.544206285790835z" fill="url(&quot;#SvgjsLinearGradient1014&quot;)"></path></g><defs><mask id="SvgjsMask1012"><rect width="1440" height="250" fill="#ffffff"></rect></mask><linearGradient x1="0%" y1="100%" x2="100%" y2="0%" id="SvgjsLinearGradient1013"><stop stop-color="rgba(255, 106, 12, 0.41)" offset="0"></stop><stop stop-opacity="0" stop-color="rgba(255, 106, 12, 0.41)" offset="0.66"></stop></linearGradient><linearGradient x1="100%" y1="100%" x2="0%" y2="0%" id="SvgjsLinearGradient1014"><stop stop-color="rgba(255, 106, 12, 0.41)" offset="0"></stop><stop stop-opacity="0" stop-color="rgba(255, 106, 12, 0.41)" offset="0.66"></stop></linearGradient></defs></svg>