<svg xmlns="http://www.w3.org/2000/svg" xmlns:xlink="http://www.w3.org/1999/xlink" viewBox="0,0,256,256" width="144px" height="144px" fill-rule="nonzero"><g fill="#ffffff" fill-rule="nonzero" stroke="none" stroke-width="1" stroke-linecap="butt" stroke-linejoin="miter" stroke-miterlimit="10" stroke-dasharray="" stroke-dashoffset="0" font-family="none" font-weight="none" font-size="none" text-anchor="none" style="mix-blend-mode: normal"><g transform="scale(5.33333,5.33333)"><path d="M24,4c-11.02771,0 -20,8.97229 -20,20c0,5.64158 2.34434,10.75547 6.11133,14.39063c0.3843,0.37888 0.9425,0.52214 1.46176,0.37516c0.51926,-0.14698 0.91957,-0.56154 1.04829,-1.08562c0.12872,-0.52409 -0.03398,-1.07693 -0.42606,-1.44774c-3.20501,-3.09285 -5.19531,-7.42 -5.19531,-12.23242c0,-9.40629 7.59371,-17 17,-17c0.54095,0.00765 1.04412,-0.27656 1.31683,-0.74381c0.27271,-0.46725 0.27271,-1.04514 0,-1.51238c-0.27271,-0.46725 -0.77588,-0.75146 -1.31683,-0.74381zM34.1543,7.03711c-0.66551,0.00177 -1.2503,0.44179 -1.43635,1.08077c-0.18605,0.63898 0.07113,1.32415 0.63167,1.6829c4.60897,3.04109 7.65039,8.25361 7.65039,14.19922c0,9.40629 -7.59371,17 -17,17c-1.52652,0 -3.00201,-0.20054 -4.40625,-0.57617c-0.52129,-0.14873 -1.08226,-0.00466 -1.46737,0.37685c-0.38511,0.38151 -0.53444,0.94111 -0.3906,1.46377c0.14383,0.52266 0.55845,0.92706 1.08453,1.05782c1.65376,0.44237 3.3902,0.67773 5.17969,0.67773c11.02771,0 20,-8.97229 20,-20c0,-6.97039 -3.57702,-13.12622 -8.99805,-16.70312c-0.24993,-0.17001 -0.54539,-0.26055 -0.84766,-0.25977zM29.06641,15.76953c-2.794,0 -5.06641,2.27241 -5.06641,5.06641v0.26953c-5.697,-0.523 -7.29628,-4.31837 -7.36328,-4.48437c-0.068,-0.167 -0.22239,-0.28459 -0.40039,-0.30859c-0.181,-0.026 -0.35684,0.05131 -0.46484,0.19531c-0.037,0.049 -0.90625,1.22637 -0.90625,2.98438c0,1.393 0.51531,2.39727 1.07031,3.07227c-0.552,-0.135 -0.87977,-0.29387 -0.88477,-0.29687c-0.163,-0.079 -0.35391,-0.06389 -0.50391,0.03711c-0.149,0.103 -0.2328,0.27703 -0.2168,0.45703c0.011,0.117 0.26245,2.53061 2.81445,4.09961l-0.82422,0.20508c-0.152,0.038 -0.27784,0.14606 -0.33984,0.28906c-0.062,0.145 -0.05066,0.31031 0.02734,0.44531c0.042,0.074 0.958,1.63108 3.5,2.58008c-0.935,0.431 -2.62484,0.96875 -5.21484,0.96875c-0.196,0 -0.37408,0.11397 -0.45508,0.29297c-0.082,0.179 -0.05088,0.39011 0.07813,0.53711c0.083,0.095 2.09033,2.31836 7.36133,2.31836c8.771,0 12.85742,-8.15111 12.85742,-13.66211c0,-0.072 -0.01848,-0.14089 -0.02148,-0.21289c1.362,-1.231 1.85886,-2.19037 1.88086,-2.23437c0.102,-0.203 0.06425,-0.44928 -0.09375,-0.61328c-0.158,-0.164 -0.40138,-0.21123 -0.60937,-0.11523l-0.08789,0.04102c-0.075,0.034 -0.14861,0.06951 -0.22461,0.10352c0.219,-0.349 0.39172,-0.72242 0.51172,-1.10742c0.067,-0.213 -0.00564,-0.44599 -0.18164,-0.58398c-0.176,-0.138 -0.42033,-0.15216 -0.61133,-0.03516c-0.78,0.474 -1.52145,0.77798 -2.31445,0.95898c-0.891,-0.779 -2.04341,-1.26758 -3.31641,-1.26758z"></path></g></g></svg>