<svg width="1191" height="1191" viewBox="0 0 1191 1191" fill="none" xmlns="http://www.w3.org/2000/svg">
<circle cx="595.417" cy="595.343" r="594.5" transform="rotate(119 595.417 595.343)" stroke="white" stroke-width="2.5"/>
<path d="M468.208 1188.94C462.411 1185.72 460.317 1178.42 463.53 1172.62C466.743 1166.83 474.047 1164.73 479.843 1167.95C485.64 1171.16 487.734 1178.46 484.521 1184.26C481.308 1190.06 474.004 1192.15 468.208 1188.94Z" fill="#0047FF"/>
<path d="M1111.94 316.923C1107.59 314.513 1106.02 309.035 1108.43 304.688C1110.84 300.341 1116.32 298.77 1120.67 301.18C1125.01 303.589 1126.58 309.067 1124.18 313.415C1121.77 317.762 1116.29 319.333 1111.94 316.923Z" fill="#FAFF00"/>
<path d="M65.8773 323.506C61.0469 320.828 59.3017 314.742 61.9792 309.911C64.6567 305.081 70.7431 303.336 75.5735 306.013C80.4039 308.691 82.1491 314.777 79.4716 319.608C76.7941 324.438 70.7077 326.183 65.8773 323.506Z" fill="#FF0000"/>
</svg>
