<svg width="508" height="508" viewBox="0 0 508 508" fill="none" xmlns="http://www.w3.org/2000/svg">
<circle cx="253.959" cy="253.6" r="253" transform="rotate(119 253.959 253.6)" stroke="white"/>
<path d="M6.8826 321.2C4.4674 319.862 3.59478 316.818 4.93355 314.403C6.27231 311.988 9.3155 311.115 11.7307 312.454C14.1459 313.793 15.0185 316.836 13.6797 319.251C12.341 321.667 9.29779 322.539 6.8826 321.2Z" fill="#0038FF"/>
<path d="M390.729 468.21C387.83 466.603 386.783 462.952 388.39 460.053C389.996 457.155 393.648 456.108 396.546 457.715C399.444 459.321 400.492 462.973 398.885 465.871C397.279 468.769 393.627 469.817 390.729 468.21Z" fill="#00FF94"/>
<path d="M357.845 30.8035C354.463 28.9293 353.242 24.6688 355.116 21.2875C356.99 17.9062 361.251 16.6846 364.632 18.5588C368.013 20.4331 369.235 24.6936 367.361 28.0749C365.486 31.4561 361.226 32.6778 357.845 30.8035Z" fill="#DB00FF"/>
</svg>
