<svg width="149" height="151" viewBox="0 0 149 151" fill="none" xmlns="http://www.w3.org/2000/svg">
<circle cx="74.6352" cy="74.3923" r="73.75" transform="rotate(119 74.6352 74.3923)" stroke="white" stroke-width="0.5"/>
<circle cx="140.323" cy="40.1853" r="2" transform="rotate(119 140.323 40.1853)" fill="#FF0000"/>
<path d="M8.25004 42.5741C6.80093 41.7708 6.27735 39.9449 7.08061 38.4958C7.88387 37.0466 9.70978 36.5231 11.1589 37.3263C12.608 38.1296 13.1316 39.9555 12.3283 41.4046C11.5251 42.8537 9.69916 43.3773 8.25004 42.5741Z" fill="#0038FF"/>
<path d="M57.093 149.985C55.1609 148.914 54.4628 146.479 55.5338 144.547C56.6048 142.615 59.0394 141.917 60.9715 142.988C62.9037 144.059 63.6018 146.493 62.5308 148.425C61.4598 150.358 59.0252 151.056 57.093 149.985Z" fill="#EBFF00"/>
</svg>
